<?xml version="1.0" encoding="UTF-8"?> <svg xmlns="http://www.w3.org/2000/svg" width="122" height="63" viewBox="0 0 122 63" fill="none"><path fill-rule="evenodd" clip-rule="evenodd" d="M77.1403 50.2348C77.8727 50.2348 78.4623 49.6024 78.4623 48.8072C78.4623 48.012 77.8727 47.3892 77.1403 47.3892C76.4078 47.3892 75.8093 48.0215 75.8093 48.8072C75.8093 49.5928 76.3989 50.2348 77.1403 50.2348ZM77.2385 61.4159C77.971 61.4159 78.5695 60.7836 78.5695 59.9979C78.5695 59.2123 77.9799 58.5703 77.2385 58.5703C76.4971 58.5703 75.9165 59.2027 75.9165 59.9979C75.9165 60.7931 76.5061 61.4159 77.2385 61.4159ZM97.5868 51.212C98.3193 51.212 98.9178 50.5797 98.9178 49.794C98.9178 49.0084 98.3282 48.3665 97.5868 48.3665C96.8454 48.3665 96.2648 48.9988 96.2648 49.794C96.2648 50.5893 96.8544 51.212 97.5868 51.212ZM61.3297 61.3776C62.0622 61.3776 62.6517 60.7452 62.6517 59.95C62.6517 59.1548 62.0622 58.5224 61.3297 58.5224C60.5973 58.5224 59.9988 59.1548 59.9988 59.95C59.9988 60.7452 60.5973 61.3776 61.3297 61.3776ZM47.1985 50.6851C47.9309 50.6851 48.5294 50.0527 48.5294 49.2575C48.5294 48.4623 47.9309 47.8299 47.1985 47.8299C46.466 47.8299 45.8675 48.4719 45.8675 49.2575C45.8675 50.0432 46.4571 50.6851 47.1985 50.6851ZM35.0949 49.9665C35.8274 49.9665 36.4258 49.3342 36.4258 48.5389C36.4258 47.7437 35.8363 47.1209 35.0949 47.1209C34.3535 47.1209 33.7729 47.7533 33.7729 48.5389C33.7729 49.3246 34.3624 49.9665 35.0949 49.9665ZM100.66 49.9952C99.9361 50.1006 99.2751 49.5641 99.1768 48.788C99.0786 48.012 99.5788 47.303 100.302 47.1976C100.463 47.1688 100.624 47.1592 100.785 47.1401C100.963 47.1305 101.124 47.1209 101.258 47.1209C103.161 47.1209 104.885 47.9449 106.126 49.2862C107.368 50.618 108.145 52.4672 108.145 54.5079C108.145 56.5487 107.377 58.3979 106.126 59.7296C104.876 61.0614 103.161 61.895 101.258 61.895C99.3555 61.895 97.6315 61.071 96.3899 59.7296C95.1393 58.3883 94.3711 56.5487 94.3711 54.5079C94.3711 54.0864 94.4069 53.6648 94.4694 53.2528C94.5319 52.8313 94.6391 52.4288 94.7642 52.036C95.0053 51.2983 95.7557 50.915 96.4435 51.1737C97.1313 51.4324 97.4886 52.2372 97.2474 52.975C97.167 53.2145 97.1045 53.4636 97.0687 53.7223C97.033 53.9714 97.0062 54.2301 97.0062 54.4984C97.0062 55.7535 97.4796 56.8936 98.2478 57.7176C99.016 58.5416 100.079 59.0494 101.249 59.0494C102.419 59.0494 103.482 58.5416 104.25 57.7176C105.019 56.8936 105.492 55.7535 105.492 54.4984C105.492 53.2432 105.019 52.1031 104.25 51.2791C103.482 50.4551 102.419 49.9473 101.249 49.9473C101.124 49.9473 101.026 49.9473 100.945 49.9473C100.838 49.9473 100.74 49.9665 100.651 49.9761L100.66 49.9952ZM112.808 51.8636C112.808 52.6492 112.218 53.2816 111.486 53.2816C110.753 53.2816 110.164 52.6492 110.164 51.8636V48.309C110.164 47.5233 110.753 46.891 111.486 46.891H115.586C117.453 46.891 119.043 47.7054 120.177 49.018C121.329 50.3498 121.999 52.1797 121.999 54.1918C121.999 56.2038 121.329 58.0338 120.177 59.3656C119.043 60.6782 117.453 61.4926 115.586 61.4926H111.146C110.414 61.4926 109.824 60.8602 109.824 60.0746C109.824 59.2889 110.414 58.6566 111.146 58.6566H115.586C116.676 58.6566 117.596 58.1871 118.248 57.4398C118.953 56.6254 119.355 55.4756 119.355 54.1918C119.355 52.9079 118.944 51.7582 118.248 50.9438C117.596 50.1964 116.676 49.727 115.586 49.727H112.799V51.8636H112.808ZM22.9645 57.9092C23.5541 57.4493 24.3759 57.5835 24.8046 58.2158C25.2334 58.8482 25.1083 59.7296 24.5188 60.1895C23.9382 60.6494 23.2861 61.0135 22.5894 61.253C21.9105 61.4926 21.187 61.6171 20.4456 61.6171C18.5429 61.6171 16.819 60.7931 15.5773 59.4518C14.3357 58.1104 13.5586 56.2709 13.5586 54.2301C13.5586 52.1893 14.3268 50.3402 15.5773 49.0084C16.8279 47.6766 18.5429 46.8431 20.4456 46.8431C20.6153 46.8431 20.8297 46.8527 21.0708 46.8814H21.1066C21.3031 46.9101 21.4996 46.9389 21.6872 46.9676C22.4018 47.1018 22.8752 47.8395 22.7502 48.606C22.6251 49.3725 21.9373 49.8803 21.2227 49.7461C21.0976 49.727 20.9815 49.7078 20.8654 49.6887H20.8297C20.7403 49.6791 20.6153 49.6695 20.4456 49.6695C19.2754 49.6695 18.2124 50.1773 17.4442 51.0013C16.676 51.8252 16.2026 52.9654 16.2026 54.2205C16.2026 55.4756 16.676 56.6158 17.4442 57.4398C18.2124 58.2637 19.2754 58.7715 20.4456 58.7715C20.9101 58.7715 21.3567 58.6949 21.7765 58.5512C22.2053 58.3979 22.6072 58.1775 22.9645 57.8901V57.9092ZM50.441 49.727C49.7174 49.8324 49.0564 49.2958 48.9582 48.5198C48.8599 47.7437 49.3601 47.0347 50.0837 46.9293C50.2445 46.9006 50.4142 46.8814 50.566 46.8718C50.7447 46.8622 50.9055 46.8527 51.0395 46.8527C52.9421 46.8527 54.6661 47.6766 55.9077 49.018C57.1582 50.3593 57.9264 52.1989 57.9264 54.2397C57.9264 56.2804 57.1582 58.1296 55.9077 59.4614C54.6661 60.8027 52.9421 61.6267 51.0395 61.6267C49.1368 61.6267 47.4128 60.8027 46.1712 59.4614C44.9296 58.1296 44.1525 56.2804 44.1525 54.2397C44.1525 53.8181 44.1882 53.3965 44.2507 52.9845C44.3222 52.563 44.4205 52.1606 44.5455 51.7677C44.7867 51.03 45.537 50.6468 46.2248 50.9055C46.9126 51.1641 47.2699 51.969 47.0288 52.7067C46.9484 52.9462 46.8858 53.1953 46.8501 53.454C46.8144 53.7031 46.7876 53.9618 46.7876 54.2301C46.7876 55.4852 47.261 56.6254 48.0292 57.4493C48.7974 58.2733 49.8604 58.7811 51.0305 58.7811C52.2007 58.7811 53.2637 58.2733 54.0319 57.4493C54.8 56.6254 55.2735 55.4852 55.2735 54.2301C55.2735 52.975 54.8 51.8348 54.0319 51.0108C53.2637 50.1869 52.2007 49.6791 51.0305 49.6791C50.9055 49.6791 50.8072 49.6791 50.7268 49.6791C50.6196 49.6791 50.5214 49.6982 50.432 49.7078L50.441 49.727ZM62.5981 55.9738C62.5981 56.7595 62.0086 57.3918 61.2761 57.3918C60.5437 57.3918 59.9541 56.7595 59.9541 55.9738V49.0467C59.9541 48.2611 60.5437 47.6287 61.2761 47.6287C61.687 47.6287 62.0533 47.8299 62.2944 48.1461L69.2529 56.1559V48.721C69.2529 47.9353 69.8424 47.303 70.5749 47.303C71.3074 47.303 71.8969 47.9353 71.8969 48.721V59.7488C71.8969 60.132 71.754 60.5057 71.4771 60.7836C70.9411 61.3105 70.1104 61.2818 69.6191 60.7069L62.5981 52.63V55.9643V55.9738ZM38.4982 48.2227C38.4982 47.4371 39.0877 46.8047 39.8202 46.8047C40.5527 46.8047 41.1422 47.4371 41.1422 48.2227V60.3428C41.1422 61.1285 40.5527 61.7608 39.8202 61.7608C39.0877 61.7608 38.4982 61.1285 38.4982 60.3428V48.2227ZM26.3589 49.8228C25.6264 49.8228 25.0369 49.1904 25.0369 48.4048C25.0369 47.6191 25.6264 46.9868 26.3589 46.9868H30.8609C31.5934 46.9868 32.1829 47.6191 32.1829 48.4048V60.0266C32.1829 60.8123 31.5934 61.4447 30.8609 61.4447C30.1284 61.4447 29.5389 60.8123 29.5389 60.0266V49.8228H26.3589ZM91.1822 47.1976C91.6735 46.6227 92.5042 46.594 93.0402 47.1209C93.5761 47.6479 93.6029 48.5389 93.1116 49.1138L88.5918 54.3451L92.933 59.3081C93.4332 59.8734 93.4064 60.774 92.8794 61.3009C92.3524 61.8375 91.5127 61.8087 91.0214 61.2434L85.8406 55.3223C85.3671 54.7858 85.3582 53.9427 85.8406 53.3965L91.1911 47.1976H91.1822ZM81.8209 48.4239C81.8209 47.6383 82.4105 47.0059 83.1429 47.0059C83.8754 47.0059 84.465 47.6383 84.465 48.4239V60.6398C84.465 61.4255 83.8754 62.0578 83.1429 62.0578C82.4105 62.0578 81.8209 61.4255 81.8209 60.6398V48.4239Z" fill="white"></path><path fill-rule="evenodd" clip-rule="evenodd" d="M12.0452 62.0548C12.8807 62.0548 13.5513 61.3371 13.5513 60.4429C13.5513 59.5487 12.8807 58.8311 12.0452 58.8311C11.2097 58.8311 10.5391 59.5487 10.5391 60.4429C10.5391 61.3371 11.2097 62.0548 12.0452 62.0548Z" fill="white"></path><path d="M11.158 56.7008C11.479 57.3689 11.2187 58.1743 10.594 58.513C9.96067 58.8516 9.19716 58.577 8.87613 57.9181L6.39471 52.7377L2.42965 61.2954C2.1173 61.9635 1.35378 62.2473 0.720415 61.9178C0.0870453 61.5883 -0.181917 60.7828 0.13043 60.1147L5.22341 49.1132C5.34488 48.8569 5.53576 48.6373 5.79605 48.5C6.42942 48.1613 7.19293 48.4359 7.51396 49.0949L11.158 56.7008Z" fill="white"></path><path fill-rule="evenodd" clip-rule="evenodd" d="M12.0503 62.0548C12.8819 62.0548 13.5513 61.3384 13.5513 60.4375C13.5513 59.5366 12.8819 58.8311 12.0503 58.8311C11.2186 58.8311 10.5391 59.5474 10.5391 60.4375C10.5391 61.3275 11.2085 62.0548 12.0503 62.0548Z" fill="#00C3E9"></path><path fill-rule="evenodd" clip-rule="evenodd" d="M73.42 36.2651C75.2939 36.2651 76.8088 34.6439 76.8088 32.6384C76.8088 30.633 75.2939 29.0117 73.42 29.0117C71.5461 29.0117 70.0312 30.633 70.0312 32.6384C70.0312 34.6439 71.5461 36.2651 73.42 36.2651Z" fill="#00C3E9"></path><path d="M66.4536 25.1301L59.7802 10.904C58.7705 9.08479 56.8887 7.86237 54.7316 7.86237C54.3002 7.86237 53.8779 7.9105 53.4648 8.00675L56.7235 2.05832C57.0173 1.4038 57.5038 0.845536 58.1463 0.460525C59.7986 -0.511629 61.9007 0.104392 62.8278 1.84657L72.5947 22.0404C72.8976 22.5891 73.0444 23.1858 73.0444 23.8211C73.0444 25.7943 71.3004 27.4017 69.6297 27.4017C67.9591 27.4017 66.9493 26.4584 66.4536 25.1301Z" fill="white"></path><path d="M51.7229 11.4569C52.6489 9.75637 54.6987 9.16738 56.3079 10.1459C57.9172 11.1244 58.4745 13.2903 57.5485 14.9908L46.9491 34.4846C46.0231 36.1851 43.9733 36.7741 42.3641 35.7956C40.7548 34.8171 40.1974 32.6512 41.1234 30.9507L51.7229 11.4569Z" fill="white"></path></svg> 