<svg width="1740" height="392" viewBox="0 0 1740 392" fill="none" xmlns="http://www.w3.org/2000/svg">
<path d="M674.995 196.868C673.821 198.857 672.132 200.492 670.106 201.6C668.081 202.709 665.794 203.25 663.486 203.166C661.178 203.25 658.891 202.709 656.866 201.6C654.84 200.492 653.151 198.857 651.977 196.868C650.33 193.238 649.704 189.228 650.166 185.269V151.605C638.829 153.805 627.322 155.018 615.776 155.23C598.378 155.23 580.979 144.763 580.979 122.336V84.1406C580.518 80.1815 581.145 76.1714 582.792 72.5417C583.962 70.5496 585.649 68.9119 587.676 67.8029C589.702 66.6939 591.991 66.1551 594.3 66.2438C596.607 66.1649 598.892 66.708 600.917 67.816C602.942 68.924 604.631 70.5563 605.808 72.5417C607.406 76.1857 608.015 80.1862 607.575 84.1406V115.494C607.575 127.274 615.006 131.669 624.521 131.669C633.133 131.43 641.711 130.475 650.166 128.815V84.1406C649.704 80.1815 650.33 76.1714 651.977 72.5417C653.151 70.5529 654.84 68.918 656.866 67.8095C658.891 66.701 661.178 66.16 663.486 66.2438C665.794 66.16 668.081 66.701 670.106 67.8095C672.132 68.918 673.821 70.5529 674.995 72.5417C676.642 76.1714 677.268 80.1815 676.807 84.1406V185.269C677.268 189.228 676.642 193.238 674.995 196.868Z" fill="white"/>
<path d="M711.977 198.684C710.532 196.976 709.456 194.987 708.817 192.842C708.178 190.698 707.989 188.445 708.262 186.224V83.1924C707.989 80.9716 708.178 78.7182 708.817 76.5739C709.456 74.4296 710.532 72.4408 711.977 70.7325C713.679 69.2909 715.66 68.2167 717.796 67.5773C719.933 66.938 722.179 66.7472 724.392 67.0172H782.387C785.921 66.5997 789.503 67.1315 792.763 68.5577C794.538 69.597 795.997 71.0981 796.987 72.9012C797.976 74.7044 798.458 76.7421 798.381 78.7974C798.466 80.8603 797.989 82.9074 796.999 84.7194C796.009 86.5313 794.545 88.0396 792.763 89.0825C789.491 90.4666 785.917 90.9816 782.387 90.5777H734.904V122.294H773.325C776.859 121.876 780.441 122.408 783.701 123.834C785.471 124.875 786.925 126.378 787.906 128.182C788.888 129.986 789.36 132.022 789.274 134.074C789.364 136.132 788.893 138.176 787.911 139.988C786.93 141.799 785.475 143.31 783.701 144.359C780.429 145.743 776.855 146.258 773.325 145.854H734.904V178.793H782.432C785.962 178.389 789.536 178.904 792.808 180.288C794.59 181.331 796.054 182.84 797.044 184.652C798.034 186.464 798.512 188.511 798.426 190.574C798.508 192.63 798.029 194.669 797.039 196.473C796.049 198.277 794.586 199.778 792.808 200.813C789.548 202.239 785.966 202.771 782.432 202.354H724.437C722.224 202.624 719.978 202.433 717.842 201.794C715.705 201.154 713.724 200.08 712.023 198.638" fill="white"/>
<path d="M826.785 198.681C825.34 196.972 824.263 194.984 823.624 192.839C822.985 190.695 822.796 188.442 823.069 186.221V84.1406C822.608 80.1815 823.235 76.1714 824.882 72.5417C826.051 70.5496 827.739 68.9119 829.766 67.8029C831.792 66.6939 834.082 66.1551 836.39 66.2438C838.692 66.1585 840.974 66.6992 842.992 67.8083C845.011 68.9173 846.691 70.5532 847.853 72.5417C849.5 76.1714 850.127 80.1815 849.665 84.1406V178.835H888.178V84.1406C887.716 80.1815 888.343 76.1714 889.99 72.5417C891.16 70.5496 892.848 68.9119 894.874 67.8029C896.901 66.6939 899.19 66.1551 901.499 66.2438C903.8 66.1585 906.082 66.6992 908.101 67.8083C910.119 68.9173 911.799 70.5532 912.962 72.5417C914.609 76.1714 915.235 80.1815 914.774 84.1406V178.835H953.105V84.1406C952.644 80.1815 953.27 76.1714 954.917 72.5417C956.087 70.5496 957.775 68.9119 959.801 67.8029C961.828 66.6939 964.117 66.1551 966.425 66.2438C968.727 66.1585 971.009 66.6992 973.028 67.8083C975.046 68.9173 976.726 70.5532 977.889 72.5417C979.536 76.1714 980.162 80.1815 979.701 84.1406V186.221C979.97 188.438 979.783 190.687 979.152 192.829C978.521 194.972 977.459 196.963 976.031 198.681C974.323 200.126 972.334 201.202 970.19 201.841C968.045 202.481 965.792 202.67 963.571 202.396H839.109C836.895 202.671 834.648 202.483 832.511 201.844C830.374 201.204 828.393 200.127 826.694 198.681" fill="white"/>
<path d="M1085.27 78.1534C1090.57 69.7714 1094.56 66.2373 1101.04 66.2373C1102.77 66.2003 1104.49 66.5189 1106.1 67.1735C1107.7 67.8281 1109.16 68.8047 1110.37 70.0432C1111.84 71.7882 1112.94 73.8227 1113.58 76.0156C1114.22 78.2084 1114.39 80.511 1114.08 82.7749V185.263C1114.52 189.221 1113.9 193.226 1112.27 196.862C1111.1 198.85 1109.41 200.485 1107.38 201.594C1105.36 202.702 1103.07 203.243 1100.76 203.16C1098.46 203.248 1096.17 202.709 1094.14 201.6C1092.11 200.491 1090.42 198.854 1089.26 196.862C1087.61 193.232 1086.98 189.222 1087.44 185.263V116.802L1040 191.289C1034.7 199.671 1030.94 203.205 1024.24 203.205C1022.5 203.242 1020.78 202.923 1019.18 202.269C1017.57 201.614 1016.12 200.637 1014.9 199.399C1013.43 197.654 1012.34 195.619 1011.7 193.427C1011.06 191.234 1010.88 188.931 1011.19 186.667V84.1795C1010.75 80.2208 1011.38 76.2167 1013 72.5805C1014.17 70.5918 1015.86 68.9568 1017.89 67.8483C1019.91 66.7397 1022.2 66.1989 1024.51 66.2826C1026.82 66.1939 1029.11 66.7328 1031.13 67.8418C1033.16 68.9508 1034.85 70.5884 1036.02 72.5805C1037.66 76.2103 1038.29 80.2203 1037.83 84.1795V152.731L1085.27 78.1534Z" fill="white"/>
<path d="M1196.64 127.871C1199.19 128.083 1201.75 127.754 1204.16 126.907C1206.57 126.06 1208.77 124.713 1210.62 122.955C1212.48 121.197 1213.94 119.067 1214.91 116.705C1215.88 114.343 1216.34 111.802 1216.26 109.249C1216.35 106.693 1215.89 104.147 1214.92 101.779C1213.95 99.412 1212.49 97.2765 1210.64 95.5132C1208.79 93.7499 1206.58 92.399 1204.17 91.5491C1201.76 90.6991 1199.19 90.3696 1196.64 90.5821H1172.13V127.871H1196.64ZM1145.53 185.277V83.1967C1145.26 80.976 1145.45 78.7226 1146.09 76.5783C1146.73 74.434 1147.8 72.4452 1149.25 70.7369C1150.95 69.2905 1152.93 68.2133 1155.07 67.5737C1157.2 66.9341 1159.45 66.7461 1161.66 67.0216H1198.18C1226.32 67.0216 1242.86 86.2324 1242.86 109.249C1242.86 132.266 1226.32 151.431 1198.18 151.431H1172.13V185.277C1172.59 189.236 1171.96 193.246 1170.32 196.876C1169.16 198.864 1167.48 200.5 1165.46 201.609C1163.44 202.718 1161.16 203.259 1158.85 203.174C1156.55 203.262 1154.26 202.724 1152.23 201.615C1150.2 200.506 1148.52 198.868 1147.35 196.876C1145.7 193.246 1145.07 189.236 1145.53 185.277Z" fill="white"/>
<path d="M1329.85 165.956C1331.28 162.372 1333.51 159.163 1336.38 156.578C1338.6 155.017 1341.27 154.208 1343.99 154.267C1345.66 154.238 1347.33 154.543 1348.88 155.166C1350.44 155.788 1351.86 156.715 1353.05 157.892C1354.31 159.224 1355.28 160.81 1355.88 162.545C1356.48 164.279 1356.7 166.122 1356.54 167.95C1355.86 176.955 1351.7 185.342 1344.94 191.329C1336.51 199.621 1326.41 203.517 1310.23 203.517C1303.53 203.78 1296.85 202.647 1290.61 200.19C1284.37 197.733 1278.71 194.006 1273.99 189.245C1260.39 175.653 1260.12 160.565 1260.12 134.875C1260.12 109.185 1260.62 93.7347 1273.99 80.5046C1278.71 75.7439 1284.37 72.0168 1290.61 69.5599C1296.85 67.103 1303.53 65.9699 1310.23 66.2324C1326.41 66.2324 1336.51 70.129 1344.94 78.4204C1351.7 84.4076 1355.86 92.7943 1356.54 101.8C1356.7 103.627 1356.47 105.468 1355.87 107.201C1355.26 108.934 1354.3 110.521 1353.05 111.858C1351.86 113.035 1350.44 113.961 1348.88 114.584C1347.33 115.206 1345.66 115.512 1343.99 115.483C1341.27 115.542 1338.6 114.733 1336.38 113.172C1333.51 110.587 1331.28 107.378 1329.85 103.793C1325.32 94.2784 1319.2 89.7928 1309.87 89.7928C1306.82 89.742 1303.8 90.3655 1301.02 91.6187C1298.24 92.8719 1295.77 94.7239 1293.79 97.0422C1288.21 103.476 1287.17 110.907 1287.17 135.056C1287.17 159.205 1288.21 166.772 1293.79 173.07C1295.77 175.388 1298.24 177.24 1301.02 178.493C1303.8 179.747 1306.82 180.37 1309.87 180.319C1319.2 180.319 1325.55 175.788 1329.85 166.319" fill="white"/>
<path d="M1409.09 120.424H1414.21L1452.41 74.2545C1457.17 68.5456 1459.75 66.2348 1464.51 66.2348C1467.49 66.2087 1470.37 67.3092 1472.57 69.3158C1473.99 70.4295 1475.14 71.8538 1475.92 73.4795C1476.71 75.1052 1477.11 76.8892 1477.1 78.6947C1477.1 82.41 1475.7 84.766 1471.21 90.1124L1435.69 131.66L1474.93 179.28C1479.46 184.581 1480.82 186.982 1480.82 190.697C1480.82 192.508 1480.42 194.297 1479.63 195.929C1478.85 197.561 1477.7 198.994 1476.29 200.122C1474.06 202.082 1471.19 203.161 1468.22 203.157C1463.69 203.157 1460.88 200.846 1456.12 195.138L1414.49 145.298H1409.09V185.396C1409.56 189.355 1408.93 193.365 1407.28 196.995C1406.11 198.987 1404.42 200.625 1402.4 201.734C1400.37 202.843 1398.08 203.382 1395.77 203.293C1393.47 203.377 1391.18 202.836 1389.15 201.727C1387.13 200.619 1385.44 198.984 1384.26 196.995C1382.64 193.359 1382.01 189.355 1382.45 185.396V84.2677C1382.01 80.309 1382.64 76.3048 1384.26 72.6686C1385.44 70.6799 1387.13 69.045 1389.15 67.9365C1391.18 66.8279 1393.47 66.287 1395.77 66.3707C1398.08 66.2821 1400.37 66.821 1402.4 67.93C1404.42 69.039 1406.11 70.6766 1407.28 72.6686C1408.93 76.2984 1409.56 80.3085 1409.09 84.2677V120.424Z" fill="white"/>
<path d="M1576.74 78.1508C1582.08 69.7687 1586.07 66.2346 1592.55 66.2346C1594.24 66.2241 1595.91 66.5559 1597.47 67.21C1599.03 67.8642 1600.44 68.827 1601.61 70.0405C1603.08 71.7856 1604.18 73.8201 1604.82 76.0129C1605.46 78.2057 1605.63 80.5083 1605.33 82.7723V185.26C1605.79 189.219 1605.16 193.229 1603.51 196.859C1602.34 198.851 1600.66 200.489 1598.63 201.598C1596.6 202.707 1594.31 203.246 1592.01 203.157C1589.7 203.242 1587.42 202.702 1585.4 201.593C1583.38 200.483 1581.7 198.848 1580.54 196.859C1578.89 193.229 1578.27 189.219 1578.73 185.26V116.799L1531.29 191.286C1525.95 199.668 1521.96 203.202 1515.52 203.202C1513.79 203.247 1512.07 202.933 1510.46 202.277C1508.85 201.622 1507.4 200.641 1506.19 199.396C1504.72 197.651 1503.62 195.617 1502.98 193.424C1502.34 191.231 1502.17 188.929 1502.48 186.665V84.1768C1502.01 80.2176 1502.64 76.2076 1504.29 72.5779C1505.46 70.5858 1507.15 68.9481 1509.17 67.8391C1511.2 66.7301 1513.49 66.1913 1515.8 66.28C1518.1 66.1962 1520.39 66.7371 1522.42 67.8456C1524.44 68.9541 1526.13 70.5891 1527.3 72.5779C1528.9 76.2219 1529.51 80.2224 1529.07 84.1768V152.729L1576.74 78.1508Z" fill="white"/>
<path d="M1664 45.635C1662.48 44.6297 1661.22 43.2903 1660.3 41.7195C1659.38 40.1487 1658.83 38.3883 1658.7 36.5733C1658.75 34.268 1659.58 32.0479 1661.06 30.2755C1661.89 29.2897 1662.92 28.4929 1664.08 27.9381C1665.25 27.3834 1666.52 27.0835 1667.81 27.0586C1669.99 27.2799 1672.05 28.1834 1673.7 29.6411C1677.77 33.3691 1683.04 35.5219 1688.56 35.7125C1694.06 35.5113 1699.31 33.3592 1703.37 29.6411C1705.02 28.1834 1707.08 27.2799 1709.26 27.0586C1710.55 27.0835 1711.82 27.3834 1712.99 27.9381C1714.15 28.4929 1715.18 29.2897 1716.02 30.2755C1717.51 32.0366 1718.34 34.2638 1718.37 36.5733C1718.24 38.3883 1717.69 40.1487 1716.77 41.7195C1715.85 43.2903 1714.59 44.6297 1713.07 45.635C1709.78 48.6822 1705.92 51.051 1701.72 52.6059C1697.51 54.1608 1693.04 54.8713 1688.56 54.6967C1684.07 54.8748 1679.59 54.1661 1675.38 52.6112C1671.16 51.0563 1667.3 48.6857 1664 45.635ZM1711.08 78.1666C1716.38 69.7845 1720.14 66.2504 1726.84 66.2504C1728.58 66.2134 1730.3 66.5321 1731.9 67.1867C1733.51 67.8413 1734.96 68.8179 1736.18 70.0563C1737.64 71.8051 1738.73 73.8413 1739.36 76.034C1739.99 78.2266 1740.16 80.5273 1739.85 82.7881V185.276C1740.29 189.23 1739.68 193.231 1738.08 196.875C1736.9 198.86 1735.21 200.493 1733.19 201.601C1731.16 202.709 1728.88 203.252 1726.57 203.173C1724.26 203.261 1721.97 202.723 1719.95 201.614C1717.92 200.505 1716.23 198.867 1715.06 196.875C1713.42 193.245 1712.79 189.235 1713.25 185.276V116.815L1665.81 191.302C1660.51 199.684 1656.48 203.218 1650.05 203.218C1648.31 203.261 1646.59 202.944 1644.98 202.289C1643.38 201.635 1641.92 200.655 1640.71 199.412C1639.24 197.667 1638.15 195.633 1637.51 193.44C1636.87 191.247 1636.69 188.944 1637 186.68V84.1926C1636.56 80.2339 1637.18 76.2299 1638.81 72.5937C1639.98 70.6049 1641.67 68.9699 1643.7 67.8614C1645.72 66.7529 1648.01 66.212 1650.32 66.2958C1652.63 66.212 1654.91 66.7529 1656.94 67.8614C1658.96 68.9699 1660.65 70.6049 1661.83 72.5937C1663.47 76.2234 1664.1 80.2334 1663.64 84.1926V152.744L1711.08 78.1666Z" fill="white"/>
<path d="M611.304 308.595H616.424L654.665 262.426C659.196 256.717 661.959 254.406 666.717 254.406C669.707 254.4 672.595 255.497 674.827 257.487C676.248 258.601 677.396 260.025 678.181 261.651C678.966 263.277 679.369 265.061 679.358 266.866C679.358 270.581 677.908 272.983 673.468 278.284L637.9 319.832L677.138 367.451C681.669 372.797 683.028 375.153 683.028 378.869C683.026 380.679 682.618 382.465 681.833 384.096C681.049 385.727 679.909 387.161 678.497 388.293C676.257 390.264 673.371 391.344 670.387 391.329C665.856 391.329 663.092 389.018 658.335 383.309L616.696 333.47H611.259V373.568C611.72 377.527 611.094 381.537 609.447 385.167C608.285 387.155 606.605 388.791 604.586 389.9C602.567 391.009 600.286 391.55 597.984 391.465C595.676 391.553 593.386 391.014 591.36 389.905C589.333 388.796 587.645 387.159 586.475 385.167C584.828 381.537 584.202 377.527 584.663 373.568V272.439C584.206 268.48 584.833 264.471 586.475 260.84C587.645 258.848 589.333 257.21 591.36 256.101C593.386 254.992 595.676 254.454 597.984 254.542C600.286 254.457 602.567 254.998 604.586 256.107C606.605 257.216 608.285 258.852 609.447 260.84C611.09 264.471 611.716 268.48 611.259 272.439L611.304 308.595Z" fill="white"/>
<path d="M732.865 284.862C727.836 290.571 726.295 297.004 726.295 322.876C726.295 348.747 727.836 355.09 732.865 360.799C735.026 363.155 737.661 365.027 740.597 366.292C743.534 367.558 746.705 368.187 749.901 368.139C753.091 368.18 756.253 367.548 759.18 366.283C762.108 365.018 764.736 363.149 766.892 360.799C771.921 355.09 773.462 348.747 773.462 322.876C773.462 297.004 771.921 290.571 766.892 284.862C764.75 282.5 762.123 280.629 759.19 279.378C756.257 278.126 753.089 277.524 749.901 277.612C746.707 277.521 743.53 278.121 740.59 279.372C737.649 280.624 735.014 282.496 732.865 284.862ZM713.564 377.427C699.971 363.835 699.699 348.747 699.699 323.057C699.699 297.367 700.153 281.917 713.564 268.687C718.279 263.915 723.938 260.18 730.18 257.722C736.421 255.265 743.108 254.138 749.811 254.414C756.514 254.129 763.203 255.252 769.446 257.711C775.689 260.169 781.348 263.908 786.058 268.687C799.65 282.279 799.967 297.367 799.967 323.057C799.967 348.747 799.469 364.197 786.058 377.427C781.348 382.206 775.689 385.945 769.446 388.403C763.203 390.861 756.514 391.984 749.811 391.699C743.108 391.976 736.421 390.849 730.18 388.391C723.938 385.934 718.279 382.199 713.564 377.427Z" fill="white"/>
<path d="M853.472 366.997H873.634C877.355 367.268 881.088 366.648 884.523 365.191C887.958 363.733 890.997 361.479 893.388 358.615C898.372 352.453 898.916 344.162 898.916 322.867C898.916 301.572 898.372 293.326 893.388 287.118C890.987 284.268 887.946 282.027 884.512 280.578C881.079 279.129 877.351 278.513 873.634 278.781H853.472V366.997ZM830.591 386.842C829.146 385.134 828.069 383.145 827.43 381.001C826.791 378.857 826.602 376.603 826.876 374.382V271.351C826.602 269.13 826.791 266.877 827.43 264.732C828.069 262.588 829.146 260.599 830.591 258.891C832.291 257.447 834.272 256.371 836.409 255.732C838.545 255.092 840.792 254.903 843.005 255.176H875.945C894.34 255.176 906.619 261.066 916.722 274.976C925.24 286.575 925.467 300.439 925.467 322.867C925.467 345.294 925.467 359.113 916.722 370.758C906.528 384.667 894.068 390.558 875.945 390.558H843.005C840.792 390.83 838.545 390.641 836.409 390.001C834.272 389.362 832.291 388.286 830.591 386.842Z" fill="white"/>
<path d="M250.65 39.1466V26.1883C250.837 23.9622 250.528 21.7223 249.745 19.6302C248.961 17.5381 247.723 15.6462 246.119 14.091C242.177 10.6022 235.653 10.421 225.277 10.421C214.902 10.421 208.377 10.421 204.435 14.091C202.832 15.6462 201.593 17.5381 200.809 19.6302C200.026 21.7223 199.717 23.9622 199.905 26.1883V38.9653L250.65 39.1466ZM189.982 43.3149V25.1915C189.77 21.3707 190.483 17.5553 192.061 14.0689C193.638 10.5825 196.034 7.52819 199.043 5.16517C205.341 0.271848 212.636 0 225.187 0C237.737 0 245.122 0.362485 251.42 5.2558C254.444 7.58648 256.85 10.622 258.43 14.0971C260.009 17.5722 260.714 21.3813 260.482 25.1915V43.3149C260.59 44.2073 260.509 45.1125 260.244 45.9713C259.978 46.8301 259.534 47.6233 258.941 48.2989C258.259 48.879 257.464 49.3114 256.606 49.5688C255.748 49.8261 254.846 49.9029 253.957 49.7941H196.823C195.941 49.902 195.047 49.8247 194.196 49.5672C193.346 49.3098 192.559 48.8778 191.885 48.2989C191.292 47.6233 190.848 46.8301 190.582 45.9713C190.317 45.1125 190.236 44.2073 190.345 43.3149" fill="#E20031"/>
<path d="M343.846 174.163C351.433 181.101 357.457 189.573 361.519 199.017C365.581 208.461 367.588 218.661 367.407 228.941C367.588 239.22 365.581 249.42 361.519 258.864C357.457 268.308 351.433 276.781 343.846 283.719C325.722 299.939 304.971 304.832 221.513 304.832C138.055 304.832 117.303 299.939 99.1798 283.719C91.5993 276.793 85.5999 268.315 81.5891 258.863C77.5782 249.41 75.6506 239.205 75.9371 228.941C75.6476 218.676 77.5736 208.47 81.5846 199.017C85.5956 189.564 91.5969 181.087 99.1798 174.163C117.575 157.897 138.372 153.004 221.513 153.004C304.654 153.004 325.269 157.897 343.846 174.163ZM221.513 67.3252C181.369 67.3252 149.019 67.7329 121.834 72.8981C98.8174 52.6452 62.5708 26.1397 45.6254 43.0851C37.4246 51.2859 37.4249 61.9788 37.4249 70.5874V121.333C13.1848 149.198 0 183.723 0 229.167C0 279.641 16.22 316.703 45.9423 346.063C89.0761 389.242 138.372 390.783 221.649 390.783C304.926 390.783 354.176 389.242 397.355 346.063C427.033 316.703 443.253 279.641 443.253 229.167C443.253 178.693 427.033 141.631 397.355 112.226L396.177 111.138V70.8139C396.177 62.2053 396.178 51.5125 387.977 43.3116C371.439 26.774 336.461 51.6484 313.353 71.7201C287.709 67.8236 257.896 67.5517 221.649 67.5517" fill="white"/>
<path d="M258.076 306.465C258.856 306.925 259.494 307.591 259.918 308.391C260.342 309.191 260.535 310.093 260.477 310.996C260.53 311.899 260.334 312.799 259.911 313.598C259.487 314.397 258.853 315.064 258.076 315.527C256.582 316.24 254.915 316.508 253.273 316.297H196.819C195.162 316.506 193.481 316.239 191.971 315.527C191.201 315.057 190.572 314.388 190.149 313.591C189.727 312.793 189.527 311.897 189.57 310.996C189.522 310.094 189.72 309.196 190.142 308.398C190.565 307.6 191.198 306.932 191.971 306.465C193.475 305.733 195.158 305.45 196.819 305.65H219.02V301.98L192.786 280.368C190.702 278.646 189.57 277.468 189.57 275.474C189.58 274.263 190.013 273.094 190.793 272.167C191.259 271.59 191.844 271.12 192.509 270.792C193.174 270.463 193.903 270.283 194.644 270.264C196.139 270.264 197.181 270.898 199.175 272.62L223.369 293.19L250.827 270.536C252.866 268.814 253.908 268.18 255.358 268.18C256.105 268.192 256.84 268.373 257.507 268.711C258.174 269.048 258.756 269.533 259.209 270.128C260.021 271.035 260.458 272.218 260.432 273.435C260.432 275.384 259.344 276.562 257.26 278.283L228.852 301.753V305.65H253.228C254.874 305.451 256.542 305.734 258.031 306.465" fill="#E20031"/>
<path d="M1035.88 339.16C1035.88 339.93 1035.62 340.604 1034.85 341.278C1034.27 341.792 1033.53 342.049 1032.83 342.049C1031.8 342.049 1031.06 341.535 1029.84 340.155L1019.09 327.894H1017.55V337.587C1017.55 339.16 1017.45 339.738 1017.07 340.508C1016.62 341.375 1015.69 342.049 1014.27 342.049C1012.86 342.049 1011.93 341.375 1011.48 340.508C1011.1 339.738 1011 339.16 1011 337.587V313.45C1011 311.877 1011.1 311.299 1011.48 310.529C1011.93 309.662 1012.86 308.988 1014.27 308.988C1015.69 308.988 1016.62 309.662 1017.07 310.529C1017.45 311.299 1017.55 311.877 1017.55 313.45V322.18H1019.09L1028.91 310.882C1030.13 309.502 1030.87 308.988 1031.9 308.988C1032.6 308.988 1033.34 309.245 1033.92 309.758C1034.69 310.432 1034.95 311.106 1034.95 311.877C1034.95 312.776 1034.62 313.546 1033.44 314.83L1024.38 324.812L1034.37 336.207C1035.52 337.523 1035.88 338.261 1035.88 339.16Z" fill="white"/>
<path d="M1046.49 325.518C1046.49 329.081 1046.78 332.452 1048.74 334.41C1049.96 335.661 1051.5 336.271 1053.49 336.271C1055.48 336.271 1057.02 335.661 1058.24 334.41C1060.2 332.452 1060.49 329.081 1060.49 325.518C1060.49 321.956 1060.2 318.617 1058.24 316.627C1057.02 315.375 1055.48 314.766 1053.49 314.766C1051.5 314.766 1049.96 315.375 1048.74 316.627C1046.78 318.617 1046.49 321.956 1046.49 325.518ZM1039.94 325.518C1039.94 320.03 1040.59 315.985 1043.76 312.711C1045.88 310.529 1049.06 308.86 1053.49 308.86C1057.92 308.86 1061.1 310.529 1063.22 312.711C1066.36 315.985 1067.03 320.03 1067.03 325.518C1067.03 331.007 1066.36 335.051 1063.22 338.325C1061.1 340.508 1057.92 342.177 1053.49 342.177C1049.06 342.177 1045.88 340.508 1043.76 338.325C1040.59 335.051 1039.94 331.007 1039.94 325.518Z" fill="white"/>
<path d="M1075.77 353.636C1075.39 352.866 1075.29 352.288 1075.29 350.715V313.45C1075.29 311.652 1075.42 311.074 1075.87 310.336C1076.41 309.469 1077.47 308.956 1078.57 308.956C1079.62 308.956 1080.62 309.373 1081.23 310.24C1081.58 310.753 1081.74 311.235 1081.81 312.551C1084.21 309.694 1086.88 308.828 1090.31 308.828C1093.59 308.828 1096.48 309.919 1098.27 311.716C1101.42 314.926 1101.87 320.126 1101.87 325.518C1101.87 330.847 1101.42 336.047 1098.27 339.256C1096.48 341.054 1093.65 342.177 1090.38 342.177C1086.91 342.177 1084.21 341.311 1081.84 338.486V350.715C1081.84 352.288 1081.74 352.866 1081.36 353.636C1080.91 354.503 1079.98 355.177 1078.57 355.177C1077.15 355.177 1076.22 354.503 1075.77 353.636ZM1095.32 325.486C1095.32 319.709 1094.49 314.734 1088.58 314.734C1082.64 314.734 1081.81 319.709 1081.81 325.486C1081.81 331.264 1082.64 336.271 1088.58 336.271C1094.49 336.271 1095.32 331.264 1095.32 325.486Z" fill="white"/>
<path d="M1116.68 337.587C1116.68 339.16 1116.58 339.738 1116.2 340.508C1115.75 341.375 1114.82 342.049 1113.41 342.049C1111.99 342.049 1111.06 341.375 1110.61 340.508C1110.23 339.738 1110.13 339.16 1110.13 337.587V313.257C1110.13 312.262 1110.13 311.106 1111.06 310.176C1111.99 309.245 1113.15 309.245 1114.14 309.245H1132.22C1133.21 309.245 1134.37 309.245 1135.3 310.176C1136.23 311.106 1136.23 312.262 1136.23 313.257V337.587C1136.23 339.16 1136.13 339.738 1135.75 340.508C1135.3 341.375 1134.37 342.049 1132.95 342.049C1131.54 342.049 1130.61 341.375 1130.16 340.508C1129.78 339.738 1129.68 339.16 1129.68 337.587V315.151H1116.68V337.587Z" fill="white"/>
<path d="M1151.02 325.518C1151.02 329.081 1151.3 332.452 1153.26 334.41C1154.48 335.661 1156.02 336.271 1158.01 336.271C1160 336.271 1161.54 335.661 1162.76 334.41C1164.72 332.452 1165.01 329.081 1165.01 325.518C1165.01 321.956 1164.72 318.617 1162.76 316.627C1161.54 315.375 1160 314.766 1158.01 314.766C1156.02 314.766 1154.48 315.375 1153.26 316.627C1151.3 318.617 1151.02 321.956 1151.02 325.518ZM1144.47 325.518C1144.47 320.03 1145.11 315.985 1148.29 312.711C1150.41 310.529 1153.58 308.86 1158.01 308.86C1162.44 308.86 1165.62 310.529 1167.74 312.711C1170.88 315.985 1171.56 320.03 1171.56 325.518C1171.56 331.007 1170.88 335.051 1167.74 338.325C1165.62 340.508 1162.44 342.177 1158.01 342.177C1153.58 342.177 1150.41 340.508 1148.29 338.325C1145.11 335.051 1144.47 331.007 1144.47 325.518Z" fill="white"/>
<path d="M1180.3 353.636C1179.91 352.866 1179.81 352.288 1179.81 350.715V313.45C1179.81 311.652 1179.94 311.074 1180.39 310.336C1180.94 309.469 1182 308.956 1183.09 308.956C1184.15 308.956 1185.14 309.373 1185.75 310.24C1186.11 310.753 1186.27 311.235 1186.33 312.551C1188.74 309.694 1191.4 308.828 1194.84 308.828C1198.11 308.828 1201 309.919 1202.8 311.716C1205.94 314.926 1206.39 320.126 1206.39 325.518C1206.39 330.847 1205.94 336.047 1202.8 339.256C1201 341.054 1198.17 342.177 1194.9 342.177C1191.43 342.177 1188.74 341.311 1186.36 338.486V350.715C1186.36 352.288 1186.27 352.866 1185.88 353.636C1185.43 354.503 1184.5 355.177 1183.09 355.177C1181.68 355.177 1180.75 354.503 1180.3 353.636ZM1199.84 325.486C1199.84 319.709 1199.01 314.734 1193.1 314.734C1187.17 314.734 1186.33 319.709 1186.33 325.486C1186.33 331.264 1187.17 336.271 1193.1 336.271C1199.01 336.271 1199.84 331.264 1199.84 325.486Z" fill="white"/>
<path d="M1212.12 332.227C1212.12 326.77 1216 322.79 1223.39 322.79H1232.02V320.768C1232.02 316.499 1230 314.413 1225.22 314.413C1222.62 314.413 1220.88 315.151 1218.99 316.595C1218.15 317.237 1217.22 317.462 1216.61 317.462C1215.94 317.462 1215.2 317.173 1214.72 316.595C1214.17 315.985 1213.95 315.44 1213.95 314.573C1213.95 313.097 1215.33 311.781 1217 310.818C1219.28 309.502 1221.91 308.86 1225.28 308.86C1234.01 308.86 1238.6 312.679 1238.6 320.062V337.587C1238.6 339.192 1238.54 339.802 1238.12 340.54C1237.64 341.439 1236.58 342.049 1235.33 342.049C1234.27 342.049 1233.47 341.664 1232.95 341.118C1232.57 340.669 1232.28 340.155 1232.21 338.775C1229.65 341.278 1227.46 342.145 1223.48 342.145C1219.41 342.145 1216.68 341.214 1214.72 339.192C1213.05 337.491 1212.12 334.987 1212.12 332.227ZM1218.51 332.131C1218.51 335.084 1220.5 336.721 1224.64 336.721C1226.98 336.721 1228.91 336.464 1230.58 334.859C1231.6 333.896 1232.02 332.419 1232.02 330.012V327.444H1224.32C1220.47 327.444 1218.51 329.113 1218.51 332.131Z" fill="white"/>
<path d="M1272.45 341.792H1252.07C1251.07 341.792 1249.92 341.792 1248.99 340.861C1248.06 339.93 1248.06 338.775 1248.06 337.78V313.45C1248.06 311.877 1248.15 311.299 1248.54 310.529C1248.99 309.662 1249.92 308.988 1251.33 308.988C1252.74 308.988 1253.67 309.662 1254.12 310.529C1254.51 311.299 1254.6 311.877 1254.6 313.45V335.886H1267.57V313.45C1267.57 311.877 1267.67 311.299 1268.05 310.529C1268.5 309.662 1269.43 308.988 1270.84 308.988C1272.26 308.988 1273.19 309.662 1273.64 310.529C1274.02 311.299 1274.12 311.877 1274.12 313.45V335.886H1274.99C1275.98 335.886 1277.14 335.886 1278.07 336.817C1279 337.748 1279 338.903 1279 339.898V346.189C1279 347.762 1278.9 348.34 1278.52 349.11C1278.07 349.977 1277.14 350.651 1275.72 350.651C1274.31 350.651 1273.38 349.977 1272.93 349.11C1272.55 348.34 1272.45 347.762 1272.45 346.189V341.792Z" fill="white"/>
<path d="M1305.53 319.965L1292.88 338.935C1291.47 341.054 1290.41 342.049 1288.81 342.049C1287.78 342.049 1287.01 341.696 1286.46 341.15C1285.66 340.38 1285.4 339.321 1285.4 337.812V313.45C1285.4 311.877 1285.5 311.299 1285.89 310.529C1286.34 309.662 1287.27 308.988 1288.68 308.988C1290.09 308.988 1291.02 309.662 1291.47 310.529C1291.86 311.299 1291.95 311.877 1291.95 313.45V331.039L1304.63 312.102C1306.04 309.951 1307.1 308.956 1308.71 308.956C1309.7 308.956 1310.5 309.309 1311.05 309.855C1311.82 310.657 1312.08 311.684 1312.08 313.193V337.587C1312.08 339.16 1311.98 339.738 1311.6 340.508C1311.15 341.375 1310.22 342.049 1308.8 342.049C1307.39 342.049 1306.46 341.375 1306.01 340.508C1305.63 339.738 1305.53 339.16 1305.53 337.587V319.965Z" fill="white"/>
<path d="M1321.17 336.207L1326.24 328.183C1322.74 326.642 1320.53 323.368 1320.53 319.227C1320.53 313.321 1324.83 309.245 1331.12 309.245H1342.45C1343.45 309.245 1344.6 309.245 1345.53 310.176C1346.46 311.106 1346.46 312.262 1346.46 313.257V337.587C1346.46 339.16 1346.37 339.738 1345.98 340.508C1345.53 341.375 1344.6 342.049 1343.19 342.049C1341.78 342.049 1340.85 341.375 1340.4 340.508C1340.01 339.738 1339.92 339.16 1339.92 337.587V329.595H1332.82L1326.56 339.577C1325.57 341.182 1324.86 342.049 1323.39 342.049C1322.81 342.049 1322.2 341.888 1321.59 341.503C1320.63 340.893 1320.05 339.962 1320.05 338.967C1320.05 338.165 1320.37 337.491 1321.17 336.207ZM1339.88 324.395V314.509H1332.28C1328.94 314.509 1327.01 316.403 1327.01 319.452C1327.01 322.469 1329 324.395 1332.15 324.395H1339.88Z" fill="white"/>
<path d="M1371.66 353.636C1371.28 352.866 1371.18 352.288 1371.18 350.715V313.45C1371.18 311.652 1371.31 311.074 1371.76 310.336C1372.31 309.469 1373.37 308.956 1374.46 308.956C1375.52 308.956 1376.51 309.373 1377.12 310.24C1377.47 310.753 1377.64 311.235 1377.7 312.551C1380.11 309.694 1382.77 308.828 1386.21 308.828C1389.48 308.828 1392.37 309.919 1394.17 311.716C1397.31 314.926 1397.76 320.126 1397.76 325.518C1397.76 330.847 1397.31 336.047 1394.17 339.256C1392.37 341.054 1389.54 342.177 1386.27 342.177C1382.8 342.177 1380.11 341.311 1377.73 338.486V350.715C1377.73 352.288 1377.64 352.866 1377.25 353.636C1376.8 354.503 1375.87 355.177 1374.46 355.177C1373.05 355.177 1372.11 354.503 1371.66 353.636ZM1391.21 325.486C1391.21 319.709 1390.38 314.734 1384.47 314.734C1378.53 314.734 1377.7 319.709 1377.7 325.486C1377.7 331.264 1378.53 336.271 1384.47 336.271C1390.38 336.271 1391.21 331.264 1391.21 325.486Z" fill="white"/>
<path d="M1403.49 332.227C1403.49 326.77 1407.37 322.79 1414.76 322.79H1423.39V320.768C1423.39 316.499 1421.37 314.413 1416.58 314.413C1413.98 314.413 1412.25 315.151 1410.36 316.595C1409.52 317.237 1408.59 317.462 1407.98 317.462C1407.31 317.462 1406.57 317.173 1406.09 316.595C1405.54 315.985 1405.32 315.44 1405.32 314.573C1405.32 313.097 1406.7 311.781 1408.37 310.818C1410.65 309.502 1413.28 308.86 1416.65 308.86C1425.38 308.86 1429.97 312.679 1429.97 320.062V337.587C1429.97 339.192 1429.91 339.802 1429.49 340.54C1429.01 341.439 1427.95 342.049 1426.7 342.049C1425.64 342.049 1424.83 341.664 1424.32 341.118C1423.94 340.669 1423.65 340.155 1423.58 338.775C1421.01 341.278 1418.83 342.145 1414.85 342.145C1410.78 342.145 1408.05 341.214 1406.09 339.192C1404.42 337.491 1403.49 334.987 1403.49 332.227ZM1409.88 332.131C1409.88 335.084 1411.87 336.721 1416.01 336.721C1418.35 336.721 1420.28 336.464 1421.95 334.859C1422.97 333.896 1423.39 332.419 1423.39 330.012V327.444H1415.69C1411.83 327.444 1409.88 329.113 1409.88 332.131Z" fill="white"/>
<path d="M1449.45 327.637H1447.55C1446.33 327.637 1445.85 327.573 1445.27 327.252C1444.54 326.834 1444.12 326.096 1444.12 325.133C1444.12 324.17 1444.54 323.432 1445.27 323.015C1445.85 322.694 1446.33 322.63 1447.55 322.63H1449.38C1452.53 322.63 1454.58 321.153 1454.58 318.425C1454.58 315.632 1452.46 314.22 1448.48 314.22C1446.04 314.22 1444.66 314.701 1442.8 315.825C1441.87 316.403 1441.26 316.692 1440.39 316.692C1439.75 316.692 1439.14 316.403 1438.69 315.921C1438.21 315.44 1437.92 314.766 1437.92 313.995C1437.92 312.808 1438.56 311.941 1439.88 311.106C1442.32 309.534 1444.89 308.86 1448.87 308.86C1456.12 308.86 1461.03 312.134 1461.03 317.654C1461.03 320.832 1459.2 323.56 1456.22 324.78C1459.4 325.968 1461.55 328.76 1461.55 332.387C1461.55 338.325 1456.31 342.177 1448.8 342.177C1444.37 342.177 1441.77 341.407 1439.08 339.641C1437.76 338.775 1436.93 337.812 1436.93 336.528C1436.93 335.758 1437.25 335.084 1437.76 334.57C1438.28 334.024 1438.95 333.735 1439.62 333.735C1440.49 333.735 1441.2 334.024 1442.1 334.634C1444.18 336.047 1445.85 336.592 1448.42 336.592C1452.56 336.592 1455.1 334.987 1455.1 332.002C1455.1 329.081 1452.88 327.637 1449.45 327.637Z" fill="white"/>
<path d="M1476.42 327.669V336.785H1484.51C1487.59 336.785 1489.46 334.987 1489.46 332.163C1489.46 329.338 1487.59 327.669 1484.51 327.669H1476.42ZM1484.13 314.252H1476.42V322.598H1484.13C1487.27 322.598 1488.94 321.121 1488.94 318.425C1488.94 315.761 1487.21 314.252 1484.13 314.252ZM1486.09 341.792H1473.89C1472.89 341.792 1471.74 341.792 1470.81 340.861C1469.88 339.93 1469.88 338.775 1469.88 337.78V313.257C1469.88 312.262 1469.88 311.106 1470.81 310.176C1471.74 309.245 1472.89 309.245 1473.89 309.245H1485.6C1491.58 309.245 1495.49 312.647 1495.49 317.975C1495.49 321.249 1493.89 323.56 1490.87 325.005C1494.11 326.449 1496 328.889 1496 332.612C1496 338.229 1492.18 341.792 1486.09 341.792Z" fill="white"/>
<path d="M1513.85 315.151V324.395C1513.85 338.004 1509.9 341.792 1503.51 341.792C1502.49 341.792 1501.85 341.664 1501.24 341.343C1500.43 340.893 1499.92 339.995 1499.92 338.935C1499.92 337.844 1500.4 336.977 1501.2 336.496C1501.52 336.303 1501.88 336.207 1502.55 336.111C1505.15 335.758 1507.53 333.511 1507.53 323.015V313.257C1507.53 312.262 1507.53 311.106 1508.46 310.176C1509.39 309.245 1510.54 309.245 1511.54 309.245H1525.79C1526.79 309.245 1527.94 309.245 1528.87 310.176C1529.8 311.106 1529.8 312.262 1529.8 313.257V337.587C1529.8 339.16 1529.71 339.738 1529.32 340.508C1528.87 341.375 1527.94 342.049 1526.53 342.049C1525.12 342.049 1524.19 341.375 1523.74 340.508C1523.35 339.738 1523.26 339.16 1523.26 337.587V315.151H1513.85Z" fill="white"/>
<path d="M1537.89 325.518C1537.89 314.798 1543.38 308.86 1551.69 308.86C1560.2 308.86 1565.27 315.055 1565.46 323.657C1565.49 324.62 1565.37 325.775 1564.56 326.578C1563.73 327.412 1562.64 327.412 1561.67 327.412H1544.37C1544.37 332.965 1547.29 336.592 1552.72 336.592C1555 336.592 1557.21 335.95 1558.98 334.538C1559.97 333.735 1560.81 333.35 1561.64 333.35C1562.96 333.35 1564.34 334.634 1564.34 336.143C1564.34 337.651 1562.67 339.064 1561.06 340.091C1559.01 341.439 1556.06 342.177 1552.56 342.177C1544.44 342.177 1537.89 337.908 1537.89 325.518ZM1559.01 322.854C1558.88 320.864 1558.75 319.837 1558.11 318.425C1557.02 315.985 1554.77 314.316 1551.69 314.316C1548.55 314.316 1546.3 315.985 1545.21 318.425C1544.57 319.837 1544.44 320.864 1544.37 322.854H1559.01Z" fill="white"/>
<path d="M1590.9 324.138V313.45C1590.9 311.877 1590.99 311.299 1591.38 310.529C1591.83 309.662 1592.76 308.988 1594.17 308.988C1595.58 308.988 1596.51 309.662 1596.96 310.529C1597.35 311.299 1597.44 311.877 1597.44 313.45V337.587C1597.44 339.16 1597.35 339.738 1596.96 340.508C1596.51 341.375 1595.58 342.049 1594.17 342.049C1592.76 342.049 1591.83 341.375 1591.38 340.508C1590.99 339.738 1590.9 339.16 1590.9 337.587V329.755C1588.65 330.205 1585.12 330.815 1581.36 330.815C1575.94 330.815 1572.02 327.765 1572.02 321.763V313.45C1572.02 311.877 1572.12 311.299 1572.5 310.529C1572.95 309.662 1573.88 308.988 1575.3 308.988C1576.71 308.988 1577.64 309.662 1578.09 310.529C1578.47 311.299 1578.57 311.877 1578.57 313.45V320.094C1578.57 323.593 1580.5 324.973 1583.58 324.973C1586.27 324.973 1589.03 324.491 1590.9 324.138Z" fill="white"/>
<path d="M1605.5 325.518C1605.5 314.798 1610.99 308.86 1619.31 308.86C1627.81 308.86 1632.88 315.055 1633.08 323.657C1633.11 324.62 1632.98 325.775 1632.18 326.578C1631.34 327.412 1630.25 327.412 1629.29 327.412H1611.99C1611.99 332.965 1614.91 336.592 1620.33 336.592C1622.61 336.592 1624.83 335.95 1626.59 334.538C1627.59 333.735 1628.42 333.35 1629.26 333.35C1630.57 333.35 1631.95 334.634 1631.95 336.143C1631.95 337.651 1630.28 339.064 1628.68 340.091C1626.62 341.439 1623.67 342.177 1620.17 342.177C1612.05 342.177 1605.5 337.908 1605.5 325.518ZM1626.62 322.854C1626.5 320.864 1626.37 319.837 1625.73 318.425C1624.63 315.985 1622.39 314.316 1619.31 314.316C1616.16 314.316 1613.91 315.985 1612.82 318.425C1612.18 319.837 1612.05 320.864 1611.99 322.854H1626.62Z" fill="white"/>
<path d="M1667.14 337.587C1667.14 339.16 1667.04 339.738 1666.66 340.508C1666.21 341.375 1665.28 342.049 1663.86 342.049C1662.45 342.049 1661.52 341.375 1661.07 340.508C1660.69 339.738 1660.59 339.16 1660.59 337.587V327.926H1647.56V337.587C1647.56 339.16 1647.46 339.738 1647.08 340.508C1646.63 341.375 1645.7 342.049 1644.29 342.049C1642.87 342.049 1641.94 341.375 1641.49 340.508C1641.11 339.738 1641.01 339.16 1641.01 337.587V313.45C1641.01 311.877 1641.11 311.299 1641.49 310.529C1641.94 309.662 1642.87 308.988 1644.29 308.988C1645.7 308.988 1646.63 309.662 1647.08 310.529C1647.46 311.299 1647.56 311.877 1647.56 313.45V322.212H1660.59V313.45C1660.59 311.877 1660.69 311.299 1661.07 310.529C1661.52 309.662 1662.45 308.988 1663.86 308.988C1665.28 308.988 1666.21 309.662 1666.66 310.529C1667.04 311.299 1667.14 311.877 1667.14 313.45V337.587Z" fill="white"/>
<path d="M1697.04 319.965L1684.4 338.935C1682.98 341.054 1681.93 342.049 1680.32 342.049C1679.29 342.049 1678.52 341.696 1677.98 341.15C1677.17 340.38 1676.92 339.321 1676.92 337.812V313.45C1676.92 311.877 1677.01 311.299 1677.4 310.529C1677.85 309.662 1678.78 308.988 1680.19 308.988C1681.6 308.988 1682.54 309.662 1682.98 310.529C1683.37 311.299 1683.47 311.877 1683.47 313.45V331.039L1696.14 312.102C1697.56 309.951 1698.62 308.956 1700.22 308.956C1701.22 308.956 1702.02 309.309 1702.56 309.855C1703.33 310.657 1703.59 311.684 1703.59 313.193V337.587C1703.59 339.16 1703.5 339.738 1703.11 340.508C1702.66 341.375 1701.73 342.049 1700.32 342.049C1698.91 342.049 1697.97 341.375 1697.53 340.508C1697.14 339.738 1697.04 339.16 1697.04 337.587V319.965Z" fill="white"/>
<path d="M1733.45 319.965L1720.81 338.935C1719.39 341.054 1718.33 342.049 1716.73 342.049C1715.7 342.049 1714.93 341.696 1714.39 341.15C1713.58 340.38 1713.33 339.321 1713.33 337.812V313.45C1713.33 311.877 1713.42 311.299 1713.81 310.529C1714.26 309.662 1715.19 308.988 1716.6 308.988C1718.01 308.988 1718.94 309.662 1719.39 310.529C1719.78 311.299 1719.87 311.877 1719.87 313.45V331.039L1732.55 312.102C1733.97 309.951 1735.02 308.956 1736.63 308.956C1737.62 308.956 1738.43 309.309 1738.97 309.855C1739.74 310.657 1740 311.684 1740 313.193V337.587C1740 339.16 1739.9 339.738 1739.52 340.508C1739.07 341.375 1738.14 342.049 1736.73 342.049C1735.31 342.049 1734.38 341.375 1733.93 340.508C1733.55 339.738 1733.45 339.16 1733.45 337.587V319.965ZM1726.68 298.492C1728.73 298.492 1730.37 297.529 1731.91 296.181C1732.55 295.635 1733.1 295.379 1733.64 295.346C1734.35 295.314 1734.99 295.571 1735.54 296.181C1736.02 296.727 1736.24 297.369 1736.21 297.978C1736.18 298.781 1735.8 299.487 1734.77 300.386C1732.46 302.504 1730.02 303.66 1726.68 303.66C1723.34 303.66 1720.9 302.504 1718.59 300.386C1717.56 299.487 1717.18 298.781 1717.15 297.978C1717.11 297.369 1717.34 296.727 1717.82 296.181C1718.37 295.571 1719.01 295.314 1719.71 295.346C1720.26 295.379 1720.81 295.635 1721.45 296.181C1722.99 297.529 1724.63 298.492 1726.68 298.492Z" fill="white"/>
</svg>
