<?xml version="1.0" encoding="UTF-8"?> <svg xmlns="http://www.w3.org/2000/svg" width="125" height="28" viewBox="0 0 125 28" fill="none"><path fill-rule="evenodd" clip-rule="evenodd" d="M39.1698 6.1166C39.1698 5.9101 39.0804 5.714 38.9038 5.5249C38.7272 5.33749 38.4876 5.1709 38.1885 5.02515C37.8895 4.8794 37.5415 4.76492 37.1482 4.6799C36.7549 4.59488 36.3404 4.55326 35.9068 4.55326C35.6935 4.55326 35.5133 4.56197 35.3699 4.57585C35.2265 4.59147 35.1112 4.61745 35.0255 4.65389C34.9398 4.69033 34.8804 4.7372 34.8472 4.79446C34.814 4.85172 34.7964 4.92626 34.7964 5.01648C34.7964 5.07721 34.8052 5.2178 34.8244 5.4399C34.8437 5.66198 34.8664 5.91706 34.8978 6.20856C34.9276 6.50007 34.9608 6.80365 34.994 7.12293C35.0273 7.4422 35.0622 7.7285 35.099 7.98185C35.1182 8.16924 35.1426 8.2941 35.1776 8.35482C35.2108 8.41554 35.265 8.44507 35.3385 8.44507C35.5465 8.44507 35.7844 8.41041 36.0537 8.34102C36.3229 8.27161 36.5993 8.17786 36.8825 8.05988C37.1657 7.94187 37.4437 7.80484 37.7164 7.65039C37.9876 7.49598 38.2325 7.33284 38.4492 7.15932C38.6659 6.98579 38.8408 6.81055 38.972 6.63185C39.1032 6.45312 39.1698 6.28142 39.1698 6.11831V6.1166ZM33.5969 13.4197C33.5969 13.2202 33.5899 12.9581 33.5742 12.6371C33.5585 12.3161 33.5392 11.9604 33.5147 11.5735C33.4902 11.1848 33.4623 10.7735 33.4325 10.3363C33.4011 9.89908 33.3678 9.46712 33.3311 9.03507C33.2944 8.60477 33.2594 8.18827 33.2262 7.784C33.193 7.38144 33.1598 7.01536 33.1301 6.68742C33.0811 6.22068 33.0146 5.87709 32.9289 5.66021C32.8433 5.44159 32.7034 5.3323 32.5076 5.3323C32.324 5.3323 32.2033 5.38429 32.1456 5.48667C32.0879 5.58903 32.0529 5.71752 32.0442 5.86844C32.0354 6.01939 32.0319 6.18591 32.0354 6.36464C32.0389 6.54337 32.011 6.7083 31.9533 6.86097C31.8955 7.01192 31.7872 7.14025 31.628 7.24261C31.4689 7.34497 31.2241 7.3971 30.8954 7.3971C30.6628 7.3971 30.4652 7.3016 30.2991 7.11071C30.1347 6.91986 30.0508 6.64231 30.0508 6.27793C30.0508 5.76955 30.2029 5.30623 30.5037 4.89154C30.8062 4.47685 31.2329 4.12118 31.7819 3.82794C32.3327 3.53471 32.9954 3.30569 33.77 3.14086C34.5464 2.97776 35.4084 2.89453 36.3544 2.89453C37.0328 2.89453 37.6587 2.96907 38.2343 3.11655C38.8077 3.26577 39.3042 3.47054 39.7239 3.73427C40.1418 3.99801 40.4704 4.31033 40.7083 4.67123C40.9461 5.03213 41.065 5.42429 41.065 5.84939C41.065 6.32828 40.925 6.78635 40.6435 7.22185C40.3621 7.6591 39.9757 8.0581 39.4842 8.42247C38.9931 8.78685 38.4127 9.10268 37.7481 9.37336C37.0817 9.64404 36.3667 9.85392 35.6026 10.0049C35.3892 10.0413 35.2825 10.1715 35.2825 10.3953C35.2825 10.5463 35.2931 10.7371 35.314 10.9644C35.335 11.1917 35.3559 11.4294 35.3787 11.6775C35.3996 11.9257 35.4207 12.172 35.4434 12.4149C35.4644 12.6579 35.4748 12.8731 35.4748 13.0605C35.4748 13.4006 35.3962 13.6435 35.2371 13.7875C35.078 13.9333 34.8436 14.0061 34.5307 14.0061C34.2369 14.0061 34.0078 13.9558 33.8434 13.8569C33.6791 13.7562 33.5952 13.6104 33.5952 13.4161C33.5958 13.4173 33.5963 13.4185 33.5969 13.4197Z" fill="url(#paint0_linear_6935_1684)"></path><path fill-rule="evenodd" clip-rule="evenodd" d="M66.2845 5.82268C66.2374 5.82268 66.1465 5.83313 66.0136 5.85395C65.8806 5.87477 65.7251 5.89908 65.5467 5.92857C65.3683 5.95809 65.1829 5.99102 64.9869 6.0292C64.7913 6.06738 64.6077 6.10206 64.4364 6.12983C64.265 6.15932 64.1144 6.18363 63.9888 6.20445C63.8611 6.22527 63.7771 6.23572 63.7352 6.23572C63.3384 6.23572 63.1406 6.03093 63.1406 5.61971C63.1406 5.50865 63.1512 5.39768 63.1723 5.29009C63.193 5.18078 63.23 5.08186 63.2842 4.9899C63.3366 4.89794 63.408 4.8216 63.4973 4.75566C63.5863 4.69147 63.6986 4.64632 63.8348 4.62376C64.5272 4.51792 65.2178 4.40688 65.9035 4.28889C66.5906 4.1709 67.2829 4.04774 67.9806 3.91934C68.1347 3.88984 68.2744 3.86207 68.3986 3.83605C68.5228 3.81002 68.6628 3.77359 68.8165 3.72674C68.9826 3.6799 69.1627 3.63471 69.3587 3.58959C69.5543 3.54621 69.7502 3.50635 69.9494 3.46991C70.1471 3.43521 70.3395 3.40565 70.5267 3.38136C70.7135 3.3588 70.8831 3.34668 71.0372 3.34668C71.2261 3.34668 71.3693 3.40746 71.4671 3.52719C71.5653 3.64691 71.6142 3.81687 71.6142 4.03376C71.6142 4.14481 71.6054 4.25247 71.5878 4.35484C71.5706 4.45721 71.5372 4.55088 71.49 4.63243C71.4429 4.71572 71.3781 4.78162 71.2941 4.83541C71.2121 4.88919 71.1054 4.92048 70.9742 4.93262C70.6368 4.97947 70.2748 5.03666 69.8899 5.10433C69.5054 5.172 69.1715 5.24664 68.8865 5.32819C68.7676 5.36289 68.6783 5.4202 68.6206 5.50003C68.5611 5.57985 68.5228 5.67698 68.5052 5.79496C68.4876 5.90602 68.4774 6.01873 68.4739 6.13325C68.4704 6.24777 68.4686 6.35889 68.4686 6.463C68.4686 6.70936 68.4791 6.9557 68.4999 7.20381C68.521 7.45018 68.5404 7.69665 68.5576 7.94476C68.61 8.79149 68.6924 9.62779 68.8025 10.4554C68.9126 11.2831 69.0315 12.1211 69.1627 12.9661C69.175 12.9956 69.1803 13.0252 69.1803 13.0547C69.1803 13.0842 69.1803 13.1136 69.1803 13.1431C69.1803 13.4658 68.9967 13.695 68.6294 13.8303C68.4959 13.8714 68.3625 13.9123 68.229 13.9534C68.1224 13.9881 68.0193 14.0054 67.9176 14.0054C67.7638 14.0054 67.6397 13.9569 67.5454 13.8597C67.4507 13.7626 67.3878 13.6203 67.3582 13.4329C67.1922 12.4231 67.0469 11.4167 66.9227 10.4155C66.7985 9.41433 66.7183 8.40449 66.6831 7.38944C66.6712 7.22462 66.6623 7.04591 66.657 6.8516C66.6518 6.65725 66.6483 6.45782 66.6483 6.25306C66.6483 5.96502 66.5276 5.82097 66.2845 5.82097V5.82268Z" fill="url(#paint1_linear_6935_1684)"></path><path fill-rule="evenodd" clip-rule="evenodd" d="M72.9242 4.31697C72.7353 4.17816 72.6406 4.01324 72.6406 3.82064C72.6406 3.74603 72.6547 3.6732 72.6811 3.60032C72.7071 3.52918 72.7561 3.45462 72.8261 3.38001C72.9042 3.2921 72.9822 3.20412 73.0604 3.11621C73.2004 2.94444 73.3647 2.85938 73.5536 2.85938C73.6184 2.85938 73.6863 2.87161 73.7598 2.8959C73.8333 2.92019 73.9068 2.96173 73.9818 3.01899C74.7357 3.57943 75.4611 4.1608 76.157 4.76114C76.8547 5.36149 77.5282 6.0173 78.1804 6.72873C78.2818 6.82413 78.3708 6.87271 78.4461 6.87271C78.591 6.87271 78.6803 6.77734 78.7116 6.58474C78.9483 5.64721 79.185 4.70956 79.4216 3.77203C79.5022 3.45624 79.6665 3.30013 79.9149 3.30013C79.9691 3.30013 80.0268 3.30882 80.088 3.32444C80.1492 3.34005 80.2139 3.36947 80.2786 3.41285C80.373 3.46375 80.4675 3.51474 80.5619 3.56564C80.8258 3.70965 80.957 3.904 80.957 4.15038C80.957 4.2302 80.9412 4.31862 80.9081 4.41405C80.7245 5.08207 80.5408 5.78484 80.3554 6.52575C80.17 7.26488 79.9796 8.02314 79.7854 8.80049C79.5912 9.5778 79.3921 10.3638 79.1874 11.1602C78.983 11.9566 78.7728 12.7426 78.5579 13.5234C78.4724 13.8496 78.287 14.0127 78.0003 14.0127C77.9197 14.0127 77.8306 13.9971 77.7342 13.9641C77.6457 13.9375 77.5573 13.9109 77.4687 13.8843C77.3027 13.8409 77.1802 13.7715 77.1049 13.676C77.0296 13.5806 76.9913 13.4626 76.9913 13.3238C76.9913 13.2926 76.9913 13.2545 76.9948 13.2111C76.9966 13.1677 77.007 13.126 77.0225 13.0826C77.1938 12.4476 77.3638 11.8177 77.5316 11.1914C77.6977 10.5667 77.8602 9.93863 78.0157 9.30877C78.0263 9.27059 78.0351 9.23942 78.0404 9.2134C78.0457 9.18737 78.0492 9.15783 78.0492 9.12485C78.0492 9.06067 78.0351 8.9999 78.0055 8.94093C77.9756 8.88192 77.9373 8.82294 77.8884 8.76397C77.1295 7.93111 76.3373 7.14866 75.5102 6.41645C74.6848 5.68424 73.821 4.98498 72.9224 4.31697H72.9242Z" fill="url(#paint2_linear_6935_1684)"></path><path fill-rule="evenodd" clip-rule="evenodd" d="M104.966 12.8746C105.087 12.7861 104.893 12.4997 105.015 12.3922C105.096 12.321 105.16 12.236 105.207 12.1406C105.249 12.0573 105.31 11.9949 105.384 11.9515C105.326 11.9116 105.258 11.8821 105.19 11.8596C103.243 12.7931 100.864 12.5536 98.8845 11.9029C97.3073 11.3859 94.6615 10.1835 93.2384 9.2413C92.9129 9.02617 92.6157 8.72069 92.6157 8.30947C92.6157 6.78604 94.9905 5.67385 96.1655 4.64493C96.3246 4.50612 96.3665 4.29276 96.3665 4.08107C96.3665 3.97003 96.3453 3.86421 96.2999 3.76184C96.2563 3.6612 96.1951 3.57267 96.1163 3.49633C96.036 3.41999 95.9432 3.36272 95.8401 3.32108C95.7283 3.27597 95.6128 3.25684 95.4921 3.25684C95.0759 3.25684 94.6721 3.3974 94.3083 3.59C93.8189 3.85027 93.3746 4.20419 92.9795 4.58765C92.4831 5.06828 92.044 5.61321 91.6489 6.17885C91.1102 6.95096 90.7658 7.90179 90.2535 8.54726C90.1452 8.68434 89.9894 8.76415 89.8145 8.76415C89.5802 8.76415 89.4106 8.60801 89.2952 8.42061C89.2009 8.26794 89.1239 8.09782 89.0591 7.93124C88.9807 7.72995 88.9089 7.52524 88.8407 7.32049C88.7689 7.10361 88.6971 6.88851 88.6239 6.67163C88.5574 6.47558 88.4857 6.27948 88.4052 6.0886C88.351 5.96021 88.2848 5.82314 88.2007 5.71037C88.0765 5.54555 87.9245 5.36332 87.7532 5.2436C87.6202 5.14991 87.4224 5.12904 87.2652 5.12904C87.1568 5.12904 87.0503 5.14293 86.9451 5.17069C86.8579 5.19325 86.7737 5.22629 86.697 5.27487C86.6481 5.3061 86.5971 5.34596 86.5623 5.39455C86.5518 5.41017 86.543 5.4275 86.543 5.44657C86.543 5.52465 86.5517 5.60106 86.5711 5.6774C86.5936 5.76938 86.6306 5.85954 86.6707 5.94632C86.6719 5.94921 86.6729 5.9521 86.6741 5.95499C86.6753 5.95788 86.6765 5.96077 86.6776 5.96366C86.919 6.54841 87.1428 7.14007 87.351 7.73694C87.5678 8.35464 87.7669 8.9775 87.9523 9.6039C88.1377 10.2285 88.3091 10.8584 88.4664 11.4917C88.6205 12.1094 88.7584 12.7306 88.8671 13.357C88.9072 13.5843 89.0067 13.6415 89.2357 13.6415C89.4841 13.6415 89.7726 13.6033 89.9756 13.4454C90.1571 13.3048 90.2201 13.0776 90.2412 12.8589C90.2711 12.531 90.3166 12.2013 90.3897 11.8803C90.4527 11.6045 90.5385 11.3268 90.6592 11.07C91.0142 10.2389 91.4529 10.1886 92.3412 10.6172C96.6007 13.0376 100.603 14.8404 104.963 12.8763C104.964 12.8757 104.965 12.8752 104.966 12.8746Z" fill="url(#paint3_linear_6935_1684)"></path><path fill-rule="evenodd" clip-rule="evenodd" d="M106.194 8.66006C106.194 8.20199 106.113 7.79067 105.954 7.42633C105.795 7.06195 105.565 6.75486 105.262 6.50501C104.959 6.25515 104.589 6.06436 104.148 5.93248C103.708 5.8006 103.209 5.73463 102.651 5.73463C101.674 5.73463 100.939 5.97927 100.445 6.47032C99.9498 6.96134 99.7032 7.69015 99.7032 8.66006C99.7032 9.13029 99.7767 9.56054 99.9252 9.95094C100.074 10.3413 100.28 10.6762 100.546 10.9556C100.812 11.2349 101.13 11.4518 101.501 11.608C101.871 11.7641 102.277 11.8422 102.721 11.8422C103.23 11.8422 103.699 11.7641 104.124 11.608C104.55 11.4518 104.916 11.2332 105.22 10.9521C105.524 10.6693 105.764 10.3344 105.935 9.94398C106.107 9.55357 106.192 9.12505 106.192 8.66177L106.194 8.66006ZM102.34 13.4455C101.695 13.4455 101.102 13.3362 100.56 13.1193C100.018 12.9024 99.5528 12.5988 99.1613 12.2066C98.7711 11.8163 98.4651 11.3512 98.2466 10.8099C98.0282 10.2685 97.918 9.67333 97.918 9.02094C97.918 8.66869 97.9493 8.3286 98.0105 8.0024C98.0735 7.67618 98.1576 7.37259 98.2642 7.08975C98.3113 6.97873 98.3359 6.89894 98.3359 6.8521C98.3359 6.79309 98.3219 6.73757 98.292 6.68551C98.2625 6.63171 98.229 6.57619 98.1942 6.51722C98.1594 6.45822 98.126 6.39742 98.0964 6.33146C98.0665 6.26728 98.0528 6.19269 98.0528 6.11115C98.0528 5.86475 98.1941 5.62184 98.4791 5.38413C98.7641 5.14641 99.1385 4.93472 99.6071 4.74906C100.074 4.56341 100.604 4.41428 101.197 4.29977C101.788 4.18525 102.396 4.12793 103.017 4.12793C103.781 4.12793 104.468 4.22512 105.082 4.41945C105.694 4.61378 106.215 4.89132 106.645 5.25223C107.075 5.61314 107.404 6.0522 107.635 6.56925C107.865 7.08633 107.981 7.6676 107.981 8.31481C107.981 9.03661 107.836 9.71152 107.546 10.3361C107.255 10.9625 106.857 11.5039 106.351 11.962C105.844 12.42 105.248 12.7809 104.563 13.0464C103.875 13.3101 103.136 13.4436 102.342 13.4436L102.34 13.4455Z" fill="url(#paint4_linear_6935_1684)"></path><path fill-rule="evenodd" clip-rule="evenodd" d="M107.842 5.1723C107.89 5.1723 107.937 5.167 107.984 5.16179C108.061 5.15312 108.14 5.14107 108.217 5.13066C108.449 5.09595 108.682 5.06123 108.914 5.02306C109.07 4.99877 109.231 4.97787 109.388 4.97787C109.584 4.97787 109.713 5.20527 109.787 5.35623C109.913 5.61129 110.005 5.89752 110.084 6.17166C110.191 6.5482 110.282 6.93169 110.362 7.31514C110.457 7.76106 110.535 8.21043 110.602 8.6633C110.67 9.13003 110.726 9.59854 110.764 10.0687C110.801 10.5094 110.824 10.9519 110.824 11.3926C110.824 11.4967 110.792 11.5939 110.736 11.6807C110.691 11.7518 110.645 11.8212 110.6 11.8923C110.554 11.9617 110.511 12.0346 110.47 12.1075C110.439 12.1665 110.423 12.2272 110.423 12.2949C110.423 12.6731 110.628 12.871 110.988 12.9699C111.852 13.2388 112.735 13.4713 113.625 13.6223C114.378 13.7506 115.143 13.8235 115.907 13.8235C116.792 13.8235 117.668 13.7159 118.521 13.4851C119.287 13.2769 120.035 12.9855 120.715 12.5777C121.284 12.2359 121.806 11.809 122.205 11.278C122.541 10.8304 122.744 10.3307 122.744 9.77025C122.744 9.20982 122.581 8.68058 122.312 8.19127C121.997 7.61697 121.572 7.10685 121.095 6.65919C120.535 6.13345 119.904 5.68237 119.241 5.29198C118.503 4.85647 117.724 4.49382 116.919 4.19712C116.064 3.88133 115.185 3.64019 114.289 3.46668C113.377 3.2897 112.448 3.20117 111.518 3.20117C110.887 3.20117 110.254 3.22205 109.626 3.28105C109.094 3.33136 108.563 3.41109 108.045 3.52908C107.549 3.66095 107.312 3.96982 107.312 4.48167C107.312 4.63783 107.328 4.88941 107.431 5.01781C107.524 5.13232 107.701 5.16363 107.839 5.1723C107.84 5.1723 107.841 5.1723 107.842 5.1723ZM112.425 4.95882C113.522 5.07507 114.611 5.27293 115.669 5.5818C116.566 5.84552 117.46 6.18211 118.278 6.63673C118.929 6.99761 119.558 7.44872 120.037 8.01957C120.427 8.48459 120.694 9.02596 120.694 9.64019C120.694 10.0184 120.544 10.3533 120.31 10.6465C120.042 10.9814 119.698 11.2469 119.324 11.4568C118.886 11.7032 118.409 11.8784 117.923 12.0033C117.381 12.1421 116.825 12.2064 116.265 12.2064C115.846 12.2064 115.424 12.1838 115.008 12.1352C114.644 12.0936 114.279 12.0346 113.924 11.9496C113.662 11.8854 113.384 11.8038 113.143 11.6789C112.974 11.5921 112.784 11.4568 112.77 11.252C112.718 10.6603 112.663 10.0687 112.602 9.47703C112.553 9.00159 112.499 8.52623 112.434 8.05254C112.382 7.66909 112.326 7.28384 112.261 6.9021C112.207 6.58111 112.149 6.26021 112.079 5.94268C112.049 5.80734 112.016 5.6719 111.983 5.53831C111.966 5.47064 111.946 5.38912 111.946 5.3197C111.946 5.05076 112.172 4.95711 112.41 4.95711C112.415 4.95711 112.42 4.95711 112.425 4.95711V4.95882Z" fill="url(#paint5_linear_6935_1684)"></path><path fill-rule="evenodd" clip-rule="evenodd" d="M46.166 6.77086C46.1047 6.71531 46.0488 6.67027 45.9999 6.63384C45.951 6.5974 45.8985 6.57997 45.844 6.57997C45.6903 6.57997 45.5837 6.68579 45.5225 6.89921C45.4 7.25838 45.2811 7.61234 45.1675 7.96281C45.0538 8.31332 44.9384 8.67084 44.823 9.03522C44.8107 9.06645 44.8037 9.09239 44.8037 9.11667C44.8037 9.14386 44.8037 9.17106 44.8037 9.19825C44.8037 9.4238 44.9226 9.53667 45.1622 9.53667C45.1931 9.53667 45.2241 9.53667 45.255 9.53667C45.622 9.48811 45.9911 9.44989 46.3584 9.42211C46.7271 9.39437 47.0944 9.37182 47.4617 9.35275C47.5841 9.34059 47.6801 9.30929 47.7519 9.25724C47.8219 9.20518 47.8568 9.13756 47.8568 9.05256C47.8568 8.97448 47.8202 8.87902 47.7467 8.76971C47.4895 8.42965 47.2291 8.09295 46.9684 7.76155C46.7081 7.43015 46.4386 7.10051 46.1642 6.77086H46.166ZM41.7858 11.591C41.6809 11.591 41.6038 11.539 41.5514 11.4366C41.499 11.3325 41.4727 11.1867 41.4727 10.9975C41.4727 10.9623 41.4727 10.9271 41.4727 10.8918C41.4727 10.8519 41.4797 10.7755 41.492 10.6593C41.5114 10.2203 41.7281 9.96517 42.146 9.8923C42.2165 9.88651 42.287 9.88075 42.3575 9.87496C42.4993 9.85588 42.6094 9.81244 42.6882 9.74306C42.7684 9.67364 42.8261 9.5748 42.863 9.44642C42.9679 9.0994 43.071 8.74883 43.1758 8.39661C43.2807 8.04439 43.3908 7.69395 43.5065 7.34693C43.5674 7.15259 43.6304 6.94434 43.6951 6.72225C43.7598 6.50017 43.8298 6.2798 43.9069 6.06118C43.9836 5.84255 44.0729 5.62574 44.1743 5.41232C44.2756 5.19891 44.391 5.00456 44.5187 4.82758C44.5746 4.7547 44.6499 4.67828 44.7495 4.59846C44.8477 4.51865 44.9596 4.4476 45.0852 4.3834C45.2111 4.3192 45.3459 4.26708 45.4912 4.22891C45.6343 4.189 45.7779 4.16992 45.9193 4.16992C46.103 4.16992 46.2849 4.22722 46.4632 4.34347C46.7028 4.5083 46.9389 4.70612 47.1714 4.93688C47.404 5.16765 47.6644 5.46255 47.9529 5.82168C48.2413 6.18086 48.5756 6.61469 48.9548 7.12307C49.3362 7.63145 49.7925 8.24396 50.3258 8.9623C50.4043 9.05426 50.4901 9.12198 50.5791 9.16712C50.6685 9.21222 50.7734 9.23648 50.8976 9.23648C51.0724 9.23648 51.2473 9.23648 51.4221 9.23648C51.6371 9.23648 51.8032 9.28682 51.9238 9.38743C52.0428 9.48808 52.1039 9.62681 52.1039 9.80205C52.1039 9.83848 52.104 9.88193 52.0987 9.93053C52.0952 9.97909 52.085 10.0276 52.0674 10.0762C52.0091 10.2468 51.9508 10.4174 51.8925 10.5881C51.8802 10.6367 51.8714 10.6801 51.8644 10.7165C51.8573 10.753 51.8559 10.7894 51.8559 10.8258C51.8559 10.9543 51.8995 11.0844 51.985 11.218C52.3132 11.6622 52.6413 12.1063 52.9695 12.5505C53.0799 12.7154 53.1358 12.8698 53.1358 13.0156C53.1358 13.2342 53.0099 13.4267 52.758 13.5898C52.6414 13.6719 52.5248 13.7541 52.4083 13.8363C52.3228 13.8918 52.2405 13.9334 52.1652 13.9646C52.0885 13.9959 52.0096 14.0097 51.9308 14.0097C51.8207 14.0097 51.7176 13.9785 51.6233 13.9143C51.5287 13.8501 51.438 13.7634 51.3521 13.6541C51.0584 13.2411 50.7611 12.8315 50.4638 12.4307C50.1665 12.0282 49.8642 11.6309 49.5582 11.2353C49.4164 11.041 49.2296 10.9438 48.9967 10.9438C48.2483 10.975 47.5071 11.015 46.7746 11.067C46.0418 11.1191 45.3075 11.1815 44.5711 11.2544C44.3072 11.2787 44.1412 11.4192 44.0747 11.6743C43.9365 12.1763 43.7984 12.6783 43.6603 13.1803C43.5501 13.5829 43.3035 13.7824 42.9239 13.7824C42.875 13.7824 42.8261 13.7824 42.7772 13.7824C42.6822 13.7703 42.5872 13.7582 42.4922 13.746C42.2839 13.7269 42.125 13.6644 42.0183 13.5551C41.9117 13.4458 41.8575 13.3018 41.8575 13.1266C41.8575 13.0902 41.861 13.0503 41.8663 13.0086C41.8716 12.967 41.8818 12.92 41.8941 12.8715C41.9258 12.75 41.9571 12.6252 41.9902 12.4968C42.0236 12.3684 42.0602 12.2434 42.0971 12.122C42.1091 12.0734 42.1179 12.03 42.1249 11.9901C42.1302 11.9502 42.1337 11.912 42.1337 11.8755C42.1337 11.6864 42.0602 11.5928 41.9135 11.5928C41.8739 11.5928 41.8342 11.5928 41.7946 11.5928C41.7917 11.5922 41.7887 11.5915 41.7858 11.591Z" fill="url(#paint6_linear_6935_1684)"></path><path fill-rule="evenodd" clip-rule="evenodd" d="M56.2627 5.70128C56.1403 5.74988 56.0196 5.77406 55.9042 5.77406C55.6104 5.77406 55.4074 5.60057 55.2973 5.25356C55.266 5.1616 55.2466 5.08704 55.2379 5.02458C55.2291 4.96385 55.2241 4.90828 55.2241 4.8597C55.2241 4.57341 55.3867 4.36003 55.7118 4.22123C56.3552 3.96616 57.0128 3.75799 57.6805 3.60009C58.3486 3.4422 59.0234 3.3623 59.7056 3.3623C60.0237 3.3623 60.3385 3.39527 60.6481 3.46294C60.9574 3.53061 61.2357 3.64519 61.4802 3.81003C61.725 3.97486 61.9245 4.19341 62.0783 4.46755C62.2324 4.7417 62.3073 5.08522 62.3073 5.49818C62.3073 5.77581 62.2531 6.05168 62.1412 6.30849C62.0206 6.58784 61.858 6.8534 61.6533 7.10672C61.4577 7.34966 61.2339 7.58214 60.982 7.80077C60.7301 8.01939 60.4733 8.22066 60.2091 8.40285C59.9452 8.58504 59.6845 8.75155 59.4277 8.90076C59.1705 9.04997 58.9362 9.18018 58.7282 9.28949C58.5499 9.3936 58.4605 9.49942 58.4605 9.60873C58.4605 9.73712 58.5552 9.83775 58.7455 9.91063C59.4013 10.1414 60.0729 10.3582 60.76 10.5595C61.4471 10.7607 62.143 10.9864 62.8477 11.2345C63.1781 11.356 63.3445 11.5451 63.3445 11.8002C63.3445 11.9216 63.3093 12.0448 63.2393 12.1697C63.1693 12.2947 63.0908 12.4092 63.005 12.5116C62.8266 12.7736 62.6064 12.9037 62.3425 12.9037C62.2496 12.9037 62.136 12.8863 62.0012 12.8481C61.6026 12.6955 61.1745 12.5375 60.7178 12.3727C60.2615 12.2079 59.7946 12.0465 59.319 11.8852C58.8437 11.7238 58.3768 11.5693 57.9166 11.4201C57.4568 11.2709 57.0304 11.1356 56.6384 11.0142C56.497 10.9777 56.4024 10.9586 56.3535 10.9586C56.3046 10.9586 56.2662 10.969 56.238 10.9899C56.2103 11.0107 56.1962 11.0558 56.1962 11.1218C56.1962 11.1408 56.1997 11.1634 56.205 11.1894C56.2102 11.2172 56.2138 11.2466 56.2138 11.2761C56.2328 11.3681 56.2557 11.4878 56.2817 11.637C56.3099 11.7863 56.3376 11.9389 56.364 12.0985C56.3922 12.2564 56.4147 12.4074 56.4323 12.5514C56.4498 12.6937 56.46 12.8117 56.46 12.9037C56.46 13.2455 56.2733 13.4815 55.8989 13.6168C55.7608 13.6596 55.6226 13.7024 55.4845 13.7452C55.4233 13.7642 55.3673 13.7764 55.3184 13.7868C55.2695 13.7955 55.2171 13.8007 55.1629 13.8007C54.8251 13.8007 54.6295 13.5943 54.5736 13.1796C54.4265 12.0726 54.2376 10.9795 54.0068 9.90196C53.776 8.82448 53.5157 7.75045 53.2201 6.67989C53.2008 6.61913 53.1903 6.5654 53.1885 6.52027C53.185 6.47517 53.1836 6.43348 53.1836 6.39704C53.1836 6.0743 53.3584 5.85561 53.7081 5.73938C53.8372 5.69774 53.9425 5.66303 54.0262 5.63875C54.1085 5.61447 54.1767 5.59538 54.2292 5.57976C54.2816 5.56415 54.3217 5.5537 54.3481 5.5485C54.3759 5.54158 54.4023 5.53982 54.4266 5.53982C54.7573 5.53982 54.9722 5.72552 55.0701 6.09685C55.1995 6.57225 55.3202 7.0321 55.4338 7.47627C55.5475 7.92048 55.6505 8.35941 55.7416 8.79146C55.7905 9.00488 55.8796 9.11069 56.0091 9.11069C56.0457 9.11069 56.0896 9.10385 56.1385 9.08823C56.1874 9.07261 56.2451 9.04993 56.3134 9.02044C56.5093 8.91633 56.7468 8.78976 57.0268 8.63709C57.3065 8.48439 57.5968 8.31607 57.9011 8.13038C58.2055 7.94474 58.5042 7.74869 58.8032 7.54222C59.1005 7.33572 59.3682 7.12917 59.6043 6.92096C59.8404 6.71449 60.0324 6.50976 60.1795 6.30849C60.3262 6.10723 60.3998 5.91991 60.3998 5.74293C60.3998 5.63362 60.3822 5.53298 60.3491 5.44103C60.3157 5.34907 60.2527 5.27091 60.1601 5.20324C60.0676 5.13558 59.9435 5.08531 59.7876 5.04888C59.6321 5.01244 59.4326 4.99502 59.1951 4.99502C58.9573 4.99502 58.7177 5.0141 58.464 5.054C58.2086 5.09391 57.9571 5.14596 57.7052 5.21362C57.4533 5.28129 57.2052 5.35771 56.9604 5.44274C56.7155 5.52774 56.4812 5.61626 56.2609 5.70825C56.2615 5.70593 56.2621 5.7036 56.2627 5.70128Z" fill="url(#paint7_linear_6935_1684)"></path><path fill-rule="evenodd" clip-rule="evenodd" d="M50.8984 9.2339C52.6259 9.07428 54.3536 9.01009 56.0811 9.09858C56.1616 9.71977 56.2402 10.3391 56.3207 10.9603C54.5215 10.6115 53.2975 10.681 51.855 10.8215C51.5366 10.2923 51.2165 9.7631 50.8984 9.2339Z" fill="url(#paint8_linear_6935_1684)"></path><path fill-rule="evenodd" clip-rule="evenodd" d="M36.0124 18.4249C36.0124 19.5683 36.0124 20.7117 36.0124 21.8552C35.9022 21.8552 35.7921 21.8552 35.6819 21.8552C35.6819 20.81 35.6819 19.7649 35.6819 18.7198C35.0816 18.7198 34.4812 18.7198 33.8808 18.7198C33.8651 19.024 33.8494 19.3282 33.8337 19.6325C33.8075 20.1061 33.7672 20.5018 33.7147 20.8228C33.6623 21.1421 33.5714 21.4005 33.4437 21.5983C33.3161 21.7961 33.1395 21.8934 32.9139 21.8934C32.8475 21.8934 32.7531 21.8777 32.6289 21.8465C32.64 21.7522 32.651 21.6579 32.6621 21.5636C32.7321 21.581 32.7862 21.5897 32.8212 21.5897C33.0066 21.5897 33.1482 21.4994 33.2443 21.3207C33.3423 21.1403 33.407 20.9182 33.4437 20.651C33.4787 20.3838 33.5084 20.035 33.5294 19.6064C33.5492 19.212 33.569 18.8176 33.5888 18.4232C34.3967 18.4232 35.2045 18.4232 36.0124 18.4232V18.4249ZM38.8205 21.8812C38.4937 21.8812 38.1999 21.8065 37.9357 21.6573C37.6736 21.5081 37.467 21.3016 37.3168 21.0362C37.1666 20.7707 37.0913 20.4723 37.0913 20.1392C37.0913 19.806 37.1666 19.5076 37.3168 19.2421C37.467 18.9767 37.6736 18.7701 37.9357 18.6209C38.1981 18.4717 38.4937 18.3971 38.8205 18.3971C39.1477 18.3971 39.4415 18.4717 39.7053 18.6209C39.9678 18.7701 40.1739 18.9767 40.3242 19.2421C40.4747 19.5076 40.55 19.806 40.55 20.1392C40.55 20.4723 40.4747 20.7707 40.3242 21.0362C40.1739 21.3016 39.9678 21.5081 39.7053 21.6573C39.4432 21.8065 39.1477 21.8812 38.8205 21.8812ZM38.8205 21.5862C39.0865 21.5862 39.3225 21.5255 39.5322 21.4023C39.7419 21.2791 39.9083 21.1091 40.029 20.8905C40.1493 20.6719 40.2105 20.422 40.2105 20.1409C40.2105 19.8598 40.1493 19.6099 40.029 19.3913C39.9083 19.1726 39.7419 19.0009 39.5322 18.8794C39.3225 18.7562 39.0847 18.6955 38.8205 18.6955C38.5566 18.6955 38.3188 18.7562 38.1088 18.8794C37.8991 19.0026 37.733 19.1726 37.6123 19.3913C37.4916 19.6099 37.4305 19.8598 37.4305 20.1409C37.4305 20.422 37.4916 20.6719 37.6123 20.8905C37.733 21.1091 37.8991 21.2808 38.1088 21.4023C38.3188 21.5255 38.5566 21.5862 38.8205 21.5862ZM45.6416 20.1339C45.6416 20.6735 45.4649 21.0951 45.1121 21.3988C44.7588 21.7041 44.2603 21.8673 43.6151 21.8881C43.6151 22.3023 43.6151 22.7163 43.6151 23.1304C43.5067 23.1304 43.3983 23.1304 43.29 23.1304C43.29 22.7163 43.29 22.3023 43.29 21.8881C42.6447 21.8656 42.1462 21.7024 41.793 21.3988C41.4398 21.0951 41.2632 20.6718 41.2632 20.1339C41.2632 19.596 41.4415 19.1883 41.7965 18.8847C42.1515 18.581 42.65 18.4197 43.29 18.3989C43.29 17.9257 43.29 17.4526 43.29 16.9795C43.3983 16.9795 43.5067 16.9795 43.6151 16.9795C43.6151 17.4526 43.6151 17.9257 43.6151 18.3989C44.2603 18.4214 44.7588 18.5828 45.1121 18.8847C45.4649 19.1866 45.6416 19.603 45.6416 20.1339ZM41.5956 20.1339C41.5956 20.5764 41.7406 20.9251 42.0326 21.1785C42.3246 21.4318 42.7443 21.5705 43.2917 21.5931C43.2917 20.6272 43.2917 19.6614 43.2917 18.6955C42.7443 18.7181 42.3246 18.8534 42.0326 19.1033C41.7406 19.3531 41.5956 19.6966 41.5956 20.1356V20.1339ZM43.6151 21.5931C44.1625 21.5705 44.584 21.4336 44.8778 21.182C45.1712 20.9304 45.3182 20.5798 45.3182 20.1339C45.3182 19.688 45.1712 19.3514 44.8778 19.1016C44.584 18.8517 44.1643 18.7164 43.6151 18.6938C43.6151 19.6597 43.6151 20.6255 43.6151 21.5914V21.5931ZM51.0185 18.3989C51.447 18.3989 51.7826 18.5238 52.0292 18.7737C52.2741 19.0235 52.3965 19.3826 52.3965 19.8511C52.3965 20.5191 52.3965 21.1872 52.3965 21.8552C52.2863 21.8552 52.176 21.8552 52.0658 21.8552C52.0658 21.1958 52.0658 20.5365 52.0658 19.8772C52.0658 19.492 51.9715 19.1987 51.7808 18.9957C51.5905 18.7944 51.3263 18.6938 50.9854 18.6938C50.5973 18.6938 50.2895 18.8135 50.0622 19.0547C49.8349 19.2959 49.7213 19.6204 49.7213 20.0282C49.7213 20.6372 49.7213 21.2461 49.7213 21.8552C49.611 21.8552 49.5008 21.8552 49.3906 21.8552C49.3906 21.1958 49.3906 20.5365 49.3906 19.8772C49.3906 19.492 49.2963 19.1987 49.1056 18.9957C48.9149 18.7944 48.651 18.6938 48.3119 18.6938C47.9235 18.6938 47.616 18.8135 47.3887 19.0547C47.1611 19.2959 47.0475 19.6204 47.0475 20.0282C47.0475 20.6372 47.0475 21.2461 47.0475 21.8552C46.9374 21.8552 46.8272 21.8552 46.7171 21.8552C46.7171 20.7117 46.7171 19.5683 46.7171 18.4249C46.8232 18.4249 46.9294 18.4249 47.0355 18.4249C47.0355 18.6701 47.0355 18.9153 47.0355 19.1606C47.1509 18.9194 47.3205 18.732 47.5495 18.5984C47.7785 18.4648 48.0477 18.3971 48.3608 18.3971C48.6739 18.3971 48.9395 18.4665 49.158 18.6071C49.3765 18.7476 49.5323 18.9523 49.6249 19.2247C49.7403 18.9714 49.9204 18.7684 50.1653 18.6209C50.4101 18.4717 50.6969 18.3971 51.022 18.3971C51.0208 18.3977 51.0196 18.3983 51.0185 18.3989ZM55.1119 19.943C55.679 19.943 56.2461 19.943 56.8133 19.943C56.8133 20.0413 56.8133 20.1398 56.8133 20.2381C56.2461 20.2381 55.679 20.2381 55.1119 20.2381C55.1119 20.1398 55.1119 20.0413 55.1119 19.943ZM60.8142 20.2658C60.5338 20.2658 60.2534 20.2658 59.973 20.2658C59.973 20.7962 59.973 21.3265 59.973 21.8569C59.8628 21.8569 59.7527 21.8569 59.6426 21.8569C59.6426 20.7134 59.6426 19.57 59.6426 18.4266C59.7527 18.4266 59.8628 18.4266 59.973 18.4266C59.973 18.9459 59.973 19.4653 59.973 19.9847C60.2534 19.9847 60.5338 19.9847 60.8142 19.9847C61.2489 19.4653 61.6836 18.9459 62.1183 18.4266C62.2396 18.4266 62.3609 18.4266 62.4822 18.4266C62.0141 18.9806 61.546 19.5348 61.078 20.0888C61.5816 20.6782 62.0852 21.2675 62.5887 21.8569C62.4564 21.8569 62.3242 21.8569 62.1919 21.8569C61.7326 21.3265 61.2734 20.7962 60.8142 20.2658ZM66.3377 18.4266C66.3377 19.57 66.3377 20.7134 66.3377 21.8569C66.2294 21.8569 66.121 21.8569 66.0126 21.8569C66.0126 21.5873 66.0126 21.3178 66.0126 21.0483C65.8761 21.3155 65.6837 21.522 65.4353 21.666C65.189 21.81 64.9076 21.8829 64.5945 21.8829C64.2814 21.8829 63.9805 21.8084 63.7202 21.6592C63.4595 21.5099 63.2551 21.3034 63.108 21.0414C62.9595 20.7794 62.886 20.4792 62.886 20.1409C62.886 19.8025 62.9595 19.5024 63.108 19.2369C63.2568 18.9714 63.4595 18.7666 63.7202 18.6192C63.9805 18.4717 64.2726 18.3989 64.5945 18.3989C64.916 18.3989 65.1803 18.4717 65.4251 18.6158C65.6696 18.7598 65.8639 18.961 66.0039 19.2195C66.0039 18.9547 66.0039 18.6898 66.0039 18.4249C66.114 18.4249 66.2241 18.4249 66.3343 18.4249C66.3354 18.4254 66.3366 18.426 66.3377 18.4266ZM64.6156 21.588C64.8795 21.588 65.1173 21.5272 65.327 21.404C65.537 21.2808 65.7031 21.1108 65.8237 20.8922C65.9444 20.6736 66.0057 20.4236 66.0057 20.1426C66.0057 19.8615 65.9444 19.6117 65.8237 19.3931C65.7031 19.1745 65.537 19.0026 65.327 18.8811C65.1173 18.7579 64.8795 18.6972 64.6156 18.6972C64.3514 18.6972 64.1136 18.7579 63.9039 18.8811C63.6938 19.0043 63.5278 19.1745 63.4071 19.3931C63.2864 19.6117 63.2252 19.8615 63.2252 20.1426C63.2252 20.4236 63.2864 20.6736 63.4071 20.8922C63.5278 21.1108 63.6938 21.2826 63.9039 21.404C64.1136 21.5272 64.3514 21.588 64.6156 21.588ZM69.2909 18.4006C69.6216 18.4006 69.9189 18.4752 70.1793 18.6244C70.44 18.7736 70.6426 18.9801 70.7879 19.2456C70.9329 19.511 71.0064 19.8112 71.0064 20.1495C71.0064 20.4879 70.9346 20.7812 70.7914 21.0431C70.6479 21.3069 70.4487 21.5117 70.1916 21.6609C69.9361 21.8101 69.6442 21.8846 69.3173 21.8846C68.9905 21.8846 68.721 21.8152 68.4796 21.6747C68.2383 21.5341 68.0497 21.3346 67.9132 21.0761C67.9132 21.7621 67.9132 22.448 67.9132 23.134C67.8031 23.134 67.693 23.134 67.5829 23.134C67.5829 22.1392 67.5829 21.1443 67.5829 20.1495C67.5829 19.8129 67.656 19.511 67.8013 19.2456C67.9463 18.9801 68.1493 18.7736 68.4082 18.6244C68.6668 18.4752 68.9606 18.4006 69.2927 18.4006H69.2909ZM69.2843 21.5949C69.5499 21.5949 69.7877 21.5324 69.9991 21.4074C70.2109 21.2825 70.377 21.1108 70.4959 20.8922C70.6148 20.6736 70.6743 20.4254 70.6743 20.1495C70.6743 19.8737 70.6148 19.6186 70.4959 19.4001C70.377 19.1814 70.2127 19.0096 70.0027 18.8847C69.793 18.7597 69.5534 18.6972 69.2843 18.6972C69.0148 18.6972 68.7822 18.7579 68.5725 18.8811C68.3625 19.0043 68.1999 19.1745 68.0828 19.3931C67.9656 19.6117 67.9079 19.8615 67.9079 20.1426C67.9079 20.4236 67.9656 20.6736 68.0828 20.8922C68.1999 21.1108 68.3625 21.2825 68.5725 21.4074C68.7822 21.5324 69.02 21.5949 69.2843 21.5949ZM75.1522 18.4266C75.1522 19.57 75.1522 20.7134 75.1522 21.8569C75.0439 21.8569 74.9356 21.8569 74.8272 21.8569C74.8272 21.5873 74.8272 21.3178 74.8272 21.0483C74.6907 21.3155 74.4982 21.522 74.2502 21.666C74.0036 21.81 73.7221 21.8829 73.409 21.8829C73.0959 21.8829 72.7951 21.8084 72.5347 21.6592C72.274 21.5099 72.0696 21.3034 71.9226 21.0414C71.7741 20.7794 71.7005 20.4792 71.7005 20.1409C71.7005 19.8025 71.7741 19.5024 71.9226 19.2369C72.0714 18.9714 72.274 18.7666 72.5347 18.6192C72.7951 18.4717 73.0871 18.3989 73.409 18.3989C73.7305 18.3989 73.9947 18.4717 74.2396 18.6158C74.4845 18.7598 74.6784 18.961 74.8184 19.2195C74.8184 18.9547 74.8184 18.6898 74.8184 18.4249C74.9285 18.4249 75.0386 18.4249 75.1487 18.4249C75.1499 18.4254 75.151 18.426 75.1522 18.4266ZM73.4301 21.588C73.694 21.588 73.9318 21.5272 74.1415 21.404C74.3515 21.2808 74.5176 21.1108 74.6382 20.8922C74.7589 20.6736 74.8201 20.4236 74.8201 20.1426C74.8201 19.8615 74.7589 19.6117 74.6382 19.3931C74.5176 19.1745 74.3515 19.0026 74.1415 18.8811C73.9318 18.7579 73.694 18.6972 73.4301 18.6972C73.1659 18.6972 72.9281 18.7579 72.7184 18.8811C72.5083 19.0043 72.3422 19.1745 72.2216 19.3931C72.1009 19.6117 72.0397 19.8615 72.0397 20.1426C72.0397 20.4236 72.1009 20.6736 72.2216 20.8922C72.3422 21.1108 72.5083 21.2826 72.7184 21.404C72.9281 21.5272 73.1659 21.588 73.4301 21.588ZM77.9394 21.8829C77.6125 21.8829 77.3188 21.8084 77.0546 21.6592C76.7925 21.5099 76.5862 21.3034 76.4357 21.0379C76.2854 20.7724 76.2101 20.474 76.2101 20.1409C76.2101 19.8077 76.2854 19.5093 76.4357 19.2438C76.5862 18.9784 76.7925 18.7718 77.0546 18.6226C77.317 18.4734 77.6125 18.3989 77.9394 18.3989C78.2666 18.3989 78.5603 18.4734 78.8242 18.6226C79.0867 18.7718 79.2928 18.9784 79.4434 19.2438C79.5936 19.5093 79.6689 19.8077 79.6689 20.1409C79.6689 20.474 79.5936 20.7724 79.4434 21.0379C79.2928 21.3034 79.0867 21.5099 78.8242 21.6592C78.5621 21.8084 78.2666 21.8829 77.9394 21.8829ZM77.9394 21.588C78.2054 21.588 78.4414 21.5272 78.6511 21.404C78.8611 21.2808 79.0272 21.1108 79.1479 20.8922C79.2686 20.6736 79.3298 20.4236 79.3298 20.1426C79.3298 19.8615 79.2686 19.6117 79.1479 19.3931C79.0272 19.1745 78.8611 19.0026 78.6511 18.8811C78.4414 18.7579 78.2036 18.6972 77.9394 18.6972C77.6755 18.6972 77.4377 18.7579 77.228 18.8811C77.018 19.0043 76.8519 19.1745 76.7312 19.3931C76.6106 19.6117 76.5494 19.8615 76.5494 20.1426C76.5494 20.4236 76.6106 20.6736 76.7312 20.8922C76.8519 21.1108 77.018 21.2826 77.228 21.404C77.4377 21.5272 77.6755 21.588 77.9394 21.588ZM81.9191 20.2675C81.6388 20.2675 81.3586 20.2675 81.0784 20.2675C81.0784 20.7979 81.0784 21.3282 81.0784 21.8586C80.9681 21.8586 80.8578 21.8586 80.7476 21.8586C80.7476 20.7152 80.7476 19.5717 80.7476 18.4283C80.8578 18.4283 80.9681 18.4283 81.0784 18.4283C81.0784 18.9477 81.0784 19.4671 81.0784 19.9865C81.3586 19.9865 81.6388 19.9865 81.9191 19.9865C82.354 19.4671 82.7889 18.9477 83.2237 18.4283C83.345 18.4283 83.4662 18.4283 83.5874 18.4283C83.1194 18.9824 82.6514 19.5365 82.1833 20.0906C82.6869 20.6799 83.1906 21.2692 83.6941 21.8586C83.5618 21.8586 83.4295 21.8586 83.2972 21.8586C82.8379 21.3282 82.3785 20.7979 81.9191 20.2675ZM85.7871 21.588C86.0126 21.588 86.2208 21.548 86.4129 21.4664C86.6054 21.3849 86.7644 21.267 86.8939 21.1091C86.958 21.1814 87.0222 21.2537 87.0863 21.326C86.9358 21.5099 86.7486 21.6487 86.5231 21.7424C86.2976 21.8361 86.051 21.8829 85.7819 21.8829C85.4374 21.8829 85.1295 21.8084 84.8586 21.6592C84.5877 21.5099 84.3759 21.3034 84.2222 21.0414C84.0698 20.7794 83.9931 20.4792 83.9931 20.1409C83.9931 19.8025 84.0646 19.504 84.2082 19.2403C84.3517 18.9783 84.5508 18.7718 84.808 18.6226C85.0631 18.4734 85.3533 18.3989 85.6752 18.3989C85.976 18.3989 86.2452 18.4682 86.4865 18.6052C86.7279 18.7441 86.9186 18.9332 87.0618 19.1779C87.2053 19.4208 87.2837 19.6932 87.296 19.9969C86.3227 20.1854 85.3493 20.3739 84.3759 20.5624C84.46 20.8782 84.6278 21.1282 84.8794 21.3121C85.1313 21.496 85.4339 21.588 85.7871 21.588ZM85.6752 18.6904C85.4145 18.6904 85.1802 18.751 84.974 18.8707C84.7658 18.9905 84.605 19.1606 84.4914 19.3775C84.376 19.5943 84.32 19.8407 84.32 20.1166C84.32 20.1651 84.3253 20.2328 84.3341 20.3195C85.2125 20.1489 86.0908 19.9783 86.9692 19.8077C86.9375 19.6012 86.8657 19.4139 86.7503 19.2421C86.6349 19.0721 86.4865 18.9367 86.2993 18.8378C86.1139 18.7389 85.906 18.6904 85.677 18.6904H85.6752Z" fill="white" stroke="white" stroke-width="0.407841" stroke-miterlimit="22.93"></path><path d="M22.8473 11.6443C21.6167 11.0143 20.3862 10.3842 19.1557 9.75414C18.0291 9.17728 16.9025 8.60042 15.7759 8.02355C14.6493 7.44669 13.5226 6.8697 12.396 6.29284C11.4778 5.82288 10.5595 5.35303 9.64122 4.88307C9.07412 4.59299 8.50699 4.30292 7.93989 4.01285C7.32676 3.69922 6.71362 3.38557 6.10049 3.07195C5.48736 2.75785 4.87424 2.4437 4.2611 2.1296C2.77905 1.37097 1.04076 2.53502 1.19736 4.17943C1.27709 5.01011 1.35821 5.86065 1.43936 6.71678C1.54898 7.86109 1.65865 9.01516 1.76685 10.1439C1.91064 11.657 2.05157 13.1249 2.17828 14.4642C2.38044 16.5832 2.55127 18.3802 2.66089 19.5287C2.73207 20.2747 3.40123 20.8185 4.15436 20.745C5.37871 20.6249 7.0857 20.4568 7.73777 20.3904C8.12217 20.3537 8.36702 19.9992 8.3115 19.6601C8.25595 19.3338 8.00822 19.1825 7.58396 19.2207C6.96753 19.2786 6.35109 19.3394 5.73463 19.3888C5.34168 19.4199 5.02707 19.1868 4.9744 18.804C4.88613 18.1611 5.17512 17.6808 5.84425 17.606C6.47777 17.5339 7.11418 17.4915 7.74914 17.4223C8.1207 17.3827 8.3642 17.0748 8.33144 16.7301C8.29869 16.3854 8.06806 16.2201 7.64521 16.2569C7.02878 16.3091 6.41234 16.3726 5.79588 16.4249C5.42144 16.4574 5.13527 16.2766 5.02565 15.9517C4.80924 15.3273 5.19786 14.7142 5.85562 14.6464C6.47205 14.5828 7.08856 14.5333 7.70502 14.4698C8.12358 14.4246 8.39693 14.1152 8.35707 13.7479C8.31861 13.406 8.05382 13.2463 7.5954 13.2873C6.92057 13.3481 6.24715 13.4172 5.57088 13.4639C5.2534 13.485 5.1082 13.2675 5.23489 12.9794C5.71041 11.8859 6.52193 11.1443 7.71639 10.9578C8.83968 10.784 9.98003 10.695 11.1147 10.6315C12.1198 10.5735 12.9114 11.0128 13.4567 11.8605C13.8525 12.4764 13.7443 12.7053 13.0182 12.7815C12.3918 12.8451 11.7668 12.8931 11.1404 12.9637C10.719 13.0118 10.4385 13.3297 10.484 13.6871C10.5267 14.0233 10.7973 14.1901 11.2457 14.1477C11.8436 14.0911 12.4416 14.0303 13.0424 13.9795C13.4011 13.9484 13.7001 14.1363 13.7955 14.4358C14.0147 15.1153 13.6232 15.6973 12.9043 15.7651C12.2964 15.8217 11.6885 15.8712 11.0806 15.9362C10.6834 15.9814 10.4271 16.3006 10.4726 16.6651C10.5111 16.9886 10.763 17.144 11.1873 17.1031C11.7853 17.0466 12.3832 16.9858 12.984 16.9363C13.3955 16.9025 13.7329 17.1158 13.7998 17.4605C13.9507 18.2361 13.4994 18.6923 12.9029 18.7276C12.2836 18.7615 11.6686 18.8309 11.0535 18.9043C10.6648 18.9509 10.4128 19.2673 10.4513 19.6135C10.4883 19.9497 10.7488 20.115 11.1816 20.0768C11.8536 20.0161 12.5227 19.9454 13.1947 19.8959C13.6019 19.8663 13.7243 20.0415 13.5678 20.4032C13.2019 21.2437 12.6153 21.8752 11.7511 22.2283C11.2016 22.4544 10.8214 22.963 10.8243 23.5535C10.8243 24.0042 10.8171 24.4549 10.8114 24.9027C10.8114 24.9451 10.8114 24.9874 10.8114 25.0312C11.9191 24.1454 13.1634 23.1494 14.4376 22.1309C15.8172 21.0275 17.2294 19.8989 18.5364 18.8535C19.3351 18.2149 20.0939 17.6088 20.7829 17.0579C21.7667 16.271 22.6081 15.6 23.2131 15.1168C24.3962 14.1703 24.2069 12.3323 22.8572 11.6387C22.8558 11.6406 22.8544 11.6425 22.853 11.6443C22.8511 11.6443 22.8492 11.6443 22.8473 11.6443Z" fill="url(#paint9_linear_6935_1684)"></path><defs><linearGradient id="paint0_linear_6935_1684" x1="156.657" y1="-25.9324" x2="-1.99315" y2="18.4109" gradientUnits="userSpaceOnUse"><stop offset="0.3" stop-color="#25A8D6"></stop><stop offset="0.56" stop-color="#5A1ED6"></stop><stop offset="1" stop-color="#E86948"></stop></linearGradient><linearGradient id="paint1_linear_6935_1684" x1="159.223" y1="-16.9783" x2="0.571994" y2="27.3667" gradientUnits="userSpaceOnUse"><stop offset="0.3" stop-color="#25A8D6"></stop><stop offset="0.56" stop-color="#5A1ED6"></stop><stop offset="1" stop-color="#E86948"></stop></linearGradient><linearGradient id="paint2_linear_6935_1684" x1="159.726" y1="-15.226" x2="1.07283" y2="29.1197" gradientUnits="userSpaceOnUse"><stop offset="0.3" stop-color="#25A8D6"></stop><stop offset="0.56" stop-color="#5A1ED6"></stop><stop offset="1" stop-color="#E86948"></stop></linearGradient><linearGradient id="paint3_linear_6935_1684" x1="161.399" y1="-9.36622" x2="2.7485" y2="34.9774" gradientUnits="userSpaceOnUse"><stop offset="0.3" stop-color="#25A8D6"></stop><stop offset="0.56" stop-color="#5A1ED6"></stop><stop offset="1" stop-color="#E86948"></stop></linearGradient><linearGradient id="paint4_linear_6935_1684" x1="161.809" y1="-7.94157" x2="3.15802" y2="36.4017" gradientUnits="userSpaceOnUse"><stop offset="0.3" stop-color="#25A8D6"></stop><stop offset="0.56" stop-color="#5A1ED6"></stop><stop offset="1" stop-color="#E86948"></stop></linearGradient><linearGradient id="paint5_linear_6935_1684" x1="162.543" y1="-5.37553" x2="3.89224" y2="38.9677" gradientUnits="userSpaceOnUse"><stop offset="0.3" stop-color="#25A8D6"></stop><stop offset="0.56" stop-color="#5A1ED6"></stop><stop offset="1" stop-color="#E86948"></stop></linearGradient><linearGradient id="paint6_linear_6935_1684" x1="157.887" y1="-21.6413" x2="-0.765056" y2="22.7035" gradientUnits="userSpaceOnUse"><stop offset="0.3" stop-color="#25A8D6"></stop><stop offset="0.56" stop-color="#5A1ED6"></stop><stop offset="1" stop-color="#E86948"></stop></linearGradient><linearGradient id="paint7_linear_6935_1684" x1="158.501" y1="-19.4996" x2="-0.149026" y2="24.8451" gradientUnits="userSpaceOnUse"><stop offset="0.3" stop-color="#25A8D6"></stop><stop offset="0.56" stop-color="#5A1ED6"></stop><stop offset="1" stop-color="#E86948"></stop></linearGradient><linearGradient id="paint8_linear_6935_1684" x1="158.512" y1="-19.4671" x2="-0.139739" y2="24.8782" gradientUnits="userSpaceOnUse"><stop offset="0.3" stop-color="#25A8D6"></stop><stop offset="0.56" stop-color="#5A1ED6"></stop><stop offset="1" stop-color="#E86948"></stop></linearGradient><linearGradient id="paint9_linear_6935_1684" x1="-3.83757" y1="22.5155" x2="17.1321" y2="5.0737" gradientUnits="userSpaceOnUse"><stop offset="0.3" stop-color="#25A8D6"></stop><stop offset="0.56" stop-color="#5A1ED6"></stop><stop offset="1" stop-color="#E86948"></stop></linearGradient></defs></svg> 